<svg width="580" height="580" viewBox="0 0 580 580" fill="none" xmlns="http://www.w3.org/2000/svg">
<path d="M174.513 233.642V241.139H182.009V233.642V226.146H174.513V233.642Z" fill="#EBEBEB"/>
<path d="M182.009 188.666H174.513V196.162H182.009V188.666Z" fill="#EBEBEB"/>
<path d="M228.331 271.199H220.835V278.695H228.331V271.199Z" fill="#EBEBEB"/>
<path d="M182.009 203.658V211.154H174.513V218.65H182.009V226.146H189.506H197.002V233.642H204.498V226.146H211.994V218.65V211.154H204.498V218.65H197.002H189.506V211.154V203.658V196.162H182.009V203.658Z" fill="#EBEBEB"/>
<path d="M197.002 188.666H189.506V196.162H197.002H204.498V188.666H197.002Z" fill="#EBEBEB"/>
<path d="M230.734 248.927H234.762V241.431H230.734H226.707V248.927H230.734Z" fill="#EBEBEB"/>
<path d="M211.994 196.162H204.498V203.658H211.994V196.162Z" fill="#EBEBEB"/>
<path d="M264.467 226.146H256.971V233.642H264.467V226.146Z" fill="#EBEBEB"/>
<path d="M271.963 143.689H264.467V151.185H271.963V143.689Z" fill="#EBEBEB"/>
<path d="M226.986 203.658V196.162H234.482V188.666H226.986V181.17H219.49V188.666H211.994V196.162H219.49V203.658V211.154V218.65V226.146H226.986V218.65V211.154H234.482V203.658H226.986Z" fill="#EBEBEB"/>
<path d="M264.467 278.619H271.963V271.123H264.467H256.971V278.619H264.467Z" fill="#EBEBEB"/>
<path d="M256.971 143.689H249.475V151.185H256.971V143.689Z" fill="#EBEBEB"/>
<path d="M255.097 203.658V196.162H247.601V188.666H240.104V196.162V203.658H232.608V211.154H240.104H247.601V203.658H255.097Z" fill="#EBEBEB"/>
<path d="M297.407 188.666H289.911V196.162H297.407V188.666Z" fill="#EBEBEB"/>
<path d="M219.706 226.146H212.21V233.642H219.706V226.146Z" fill="#EBEBEB"/>
<path d="M249.475 181.17V173.674H256.971V166.177H264.467H271.963V158.681H264.467V151.185H256.971V158.681H249.475V166.177H241.979V173.674H234.483V181.17H241.979H249.475Z" fill="#EBEBEB"/>
<path d="M249.475 233.642V226.146H256.971V218.65H249.475H241.979V226.146H234.482V233.642H241.979H249.475Z" fill="#EBEBEB"/>
<path d="M271.963 263.623V256.127H264.467H256.971V248.631H249.475V256.127H241.979V263.623H234.482H226.986V271.119H234.482H241.979H249.475V263.623H256.971V271.119H264.467V263.623H271.963Z" fill="#EBEBEB"/>
<path d="M241.979 151.185V143.689H234.483H226.986V151.185H219.49V158.681H226.986H234.483V151.185H241.979Z" fill="#EBEBEB"/>
<path d="M241.979 158.681H234.483V166.177H241.979V158.681Z" fill="#EBEBEB"/>
<path d="M260.719 188.666H253.223V196.162V203.658V211.154H260.719H268.215V203.658H260.719V196.162H268.215V188.666H275.711V181.17H268.215V173.674H260.719V181.17V188.666Z" fill="#EBEBEB"/>
<path d="M234.482 166.177H226.986V173.673H234.482V166.177Z" fill="#EBEBEB"/>
<path d="M256.971 241.139V248.635H264.467H271.963V241.139H279.459H286.955V233.642H279.459H271.963H264.467V241.139H256.971Z" fill="#EBEBEB"/>
<path d="M297.407 211.154H289.911V218.65H297.407V211.154Z" fill="#EBEBEB"/>
<path d="M271.963 218.65H264.467V226.146H271.963V218.65Z" fill="#EBEBEB"/>
<path d="M290.703 196.162H283.207H275.711V203.658H283.207V211.154H290.703V203.658V196.162Z" fill="#EBEBEB"/>
<path d="M286.955 218.65H279.459V226.146H286.955V218.65Z" fill="#EBEBEB"/>
<path d="M204.498 263.767H226.995V233.634H196.862V241.139H189.507V248.635H196.862V256.131H189.507V263.627H196.862V263.767H197.003V271.123H189.507V278.619V286.115H197.003V278.619H204.499V271.123L204.498 263.767ZM221.224 239.405V258.145H202.484V239.405H221.224Z" fill="#EBEBEB"/>
<path d="M301.947 233.642H309.444V226.146H301.947H294.451H286.955V233.642H294.451H301.947Z" fill="#EBEBEB"/>
<path d="M301.947 203.658H309.444V196.162V188.666H301.947V196.162V203.658Z" fill="#EBEBEB"/>
<path d="M242.258 241.431H234.762V248.927V256.423H242.258V248.927V241.431Z" fill="#EBEBEB"/>
<path d="M316.94 233.642H309.444V241.138H316.94V233.642Z" fill="#EBEBEB"/>
<path d="M316.94 218.65V211.154H309.444V218.65V226.146H316.94V218.65Z" fill="#EBEBEB"/>
<path d="M182.01 271.123H174.513V278.619V286.115H182.01V278.619V271.123Z" fill="#EBEBEB"/>
<path d="M316.94 181.17V143.689H279.46V181.17H316.94ZM285.081 175.548V149.311H311.317V175.548H285.081Z" fill="#EBEBEB"/>
<path d="M305.695 154.933H290.703V169.925H305.695V154.933Z" fill="#EBEBEB"/>
<path d="M316.94 248.635H279.46V286.116H316.94V248.635ZM285.081 280.493V254.256H311.317V280.493H285.081Z" fill="#EBEBEB"/>
<path d="M305.695 259.879H290.703V274.871H305.695V259.879Z" fill="#EBEBEB"/>
<path d="M174.42 143.689V181.17H211.9V143.689H174.42ZM206.278 149.311V175.548H180.042V149.311H206.278Z" fill="#EBEBEB"/>
<path d="M200.656 154.933H185.664V169.925H200.656V154.933Z" fill="#EBEBEB"/>
<path d="M114.61 290.499C114.601 292.459 113.005 294.04 111.045 294.031C109.085 294.022 107.504 292.426 107.513 290.466C107.522 288.506 109.118 286.925 111.078 286.934C113.037 286.943 114.619 288.539 114.61 290.499Z" fill="#EBEBEB"/>
<path d="M103.969 285.938C107.866 281.846 114.199 281.722 118.196 285.75C120.007 287.576 122.843 284.767 121.031 282.941C115.547 277.414 106.546 277.447 101.16 283.103C99.39 284.962 102.194 287.802 103.969 285.938Z" fill="#EBEBEB"/>
<path d="M91.917 269.421C97.313 264.756 103.754 261.82 110.967 261.803C118.116 261.785 125.166 264.323 130.402 269.24C132.273 270.997 135.114 268.194 133.237 266.431C127.239 260.798 119.195 257.791 110.985 257.811C102.685 257.832 95.308 261.224 89.107 266.585C87.161 268.268 89.981 271.095 91.917 269.421Z" fill="#EBEBEB"/>
<path d="M96.673 278.574C100.29 274.663 105.36 272.214 110.717 272.092C116.221 271.966 121.534 274.233 125.36 278.164C127.155 280.007 129.989 277.198 128.195 275.355C123.667 270.703 117.251 267.952 110.735 268.101C104.362 268.247 98.186 271.065 93.863 275.739C92.123 277.621 94.925 280.465 96.673 278.574Z" fill="#EBEBEB"/>
<path d="M268.101 96.435C268.705 92.048 262.513 88.439 257.861 88.064C255.642 87.885 253.338 88.224 251.236 87.492C246.682 85.905 244.863 80.021 240.419 78.147C237.097 76.746 233.272 77.993 230.052 79.614C226.831 81.235 223.649 83.275 220.051 83.505C216.921 83.705 213.523 82.545 210.784 84.074C208.744 85.213 207.675 87.564 205.794 88.952C203.954 90.309 201.554 90.597 199.271 90.721C196.988 90.845 194.625 90.868 192.546 91.82C190.467 92.772 188.748 94.97 189.179 97.215L268.101 96.435Z" fill="#EBEBEB"/>
<path d="M148.643 170.549C149.184 166.616 143.634 163.381 139.464 163.045C137.475 162.885 135.409 163.189 133.525 162.532C129.443 161.109 127.812 155.835 123.829 154.155C120.851 152.899 117.423 154.017 114.536 155.47C111.649 156.923 108.796 158.752 105.571 158.958C102.765 159.138 99.719 158.097 97.264 159.468C95.435 160.489 94.477 162.597 92.791 163.84C91.142 165.057 88.99 165.314 86.944 165.426C84.898 165.537 82.779 165.558 80.916 166.411C79.053 167.264 77.511 169.235 77.898 171.247L148.643 170.549Z" fill="#F5F5F5"/>
<path d="M523.379 167.767C523.959 163.556 518.016 160.092 513.55 159.732C511.42 159.56 509.208 159.886 507.191 159.183C502.82 157.66 501.074 152.012 496.809 150.213C493.62 148.868 489.949 150.065 486.858 151.621C483.767 153.177 480.712 155.135 477.258 155.356C474.254 155.548 470.992 154.434 468.363 155.902C466.405 156.995 465.379 159.252 463.573 160.584C461.807 161.887 459.503 162.162 457.312 162.282C455.121 162.401 452.852 162.423 450.857 163.337C448.862 164.251 447.211 166.36 447.625 168.515L523.379 167.767Z" fill="#F5F5F5"/>
<path d="M514.462 517.057C514.462 517.201 413.959 517.317 290.01 517.317C166.019 517.317 65.537 517.2 65.537 517.057C65.537 516.913 166.019 516.797 290.01 516.797C413.959 516.796 514.462 516.913 514.462 517.057Z" fill="#263238"/>
<path d="M460.696 473.066C462.699 473.935 464.172 475.787 464.912 477.841C465.651 479.896 465.718 482.14 465.472 484.31C464.996 488.508 462.611 492.746 460.042 496.1C456.507 493.015 455.694 487.633 455.453 484.877C455.072 480.521 457.028 472.417 460.696 473.066Z" fill="#FF725E"/>
<path d="M464.151 503.03C463.585 500.657 464.572 498.054 466.394 496.432C468.215 494.809 470.76 494.123 473.192 494.309C474.317 494.395 475.532 494.723 476.176 495.649C476.778 496.515 476.711 497.723 476.222 498.657C475.734 499.591 474.888 500.29 473.995 500.85C470.932 502.771 467.615 504.069 464.151 503.03Z" fill="#FF725E"/>
<path d="M459.618 515.901C459.597 515.896 459.645 515.59 459.744 515.039C459.855 514.433 459.999 513.649 460.172 512.708C460.563 510.76 461.064 507.969 462.578 505.26C464.071 502.558 466.162 500.568 467.923 499.58C468.797 499.074 469.562 498.773 470.102 498.616C470.369 498.526 470.586 498.492 470.73 498.457C470.875 498.427 470.952 498.415 470.954 498.426C470.979 498.494 469.729 498.719 468.034 499.766C466.335 500.783 464.314 502.753 462.845 505.409C461.361 508.062 460.828 510.814 460.384 512.751C460.17 513.728 459.996 514.52 459.861 515.063C459.726 515.608 459.638 515.906 459.618 515.901Z" fill="#263238"/>
<path d="M459.751 479.37C459.761 479.37 459.776 479.499 459.794 479.746C459.811 480.026 459.832 480.384 459.858 480.828C459.908 481.768 459.963 483.129 460.018 484.811C460.127 488.175 460.212 492.824 460.191 497.959C460.168 503.096 460.042 507.745 459.904 511.108C459.835 512.789 459.768 514.149 459.71 515.089C459.68 515.533 459.655 515.891 459.636 516.17C459.616 516.417 459.6 516.546 459.589 516.546C459.579 516.546 459.574 516.415 459.574 516.167C459.578 515.887 459.583 515.528 459.59 515.084C459.614 514.105 459.647 512.754 459.687 511.101C459.77 507.738 459.861 503.092 459.884 497.958C459.905 492.826 459.854 488.18 459.801 484.816C459.775 483.163 459.754 481.811 459.739 480.832C459.736 480.387 459.734 480.028 459.732 479.748C459.734 479.5 459.74 479.37 459.751 479.37Z" fill="#263238"/>
<path d="M458.035 505.585C457.231 500.506 453.807 495.914 449.169 493.692C447.988 493.126 446.445 492.757 445.474 493.635C444.501 494.515 444.719 496.095 445.195 497.317C447.175 502.403 452.493 505.994 457.951 505.93" fill="#FF725E"/>
<path d="M449.742 497.674C449.751 497.655 450.017 497.772 450.492 498.001C450.73 498.114 451.022 498.254 451.34 498.453C451.658 498.651 452.041 498.845 452.419 499.13C452.805 499.402 453.235 499.692 453.654 500.059C454.094 500.401 454.521 500.815 454.968 501.253C455.839 502.15 456.716 503.222 457.465 504.461C458.202 505.707 458.736 506.985 459.11 508.18C459.278 508.783 459.44 509.356 459.525 509.907C459.645 510.451 459.689 510.968 459.737 511.438C459.802 511.907 459.78 512.337 459.796 512.711C459.813 513.086 459.789 513.408 459.767 513.671C459.729 514.197 459.697 514.486 459.676 514.484C459.607 514.481 459.727 513.316 459.521 511.46C459.46 510.997 459.404 510.489 459.275 509.956C459.18 509.415 459.012 508.855 458.839 508.263C458.457 507.093 457.925 505.842 457.201 504.618C456.465 503.401 455.611 502.344 454.765 501.45C454.33 501.014 453.916 500.599 453.49 500.254C453.085 499.884 452.667 499.588 452.294 499.307C450.776 498.218 449.711 497.733 449.742 497.674Z" fill="#263238"/>
<path d="M192.056 517.07C191.977 517.081 191.773 515.981 191.372 514.223C190.972 512.465 190.344 510.055 189.443 507.46C188.538 504.865 187.534 502.585 186.756 500.959C185.979 499.332 185.456 498.342 185.525 498.302C185.58 498.269 186.217 499.196 187.085 500.792C187.953 502.386 189.021 504.667 189.935 507.288C190.845 509.91 191.424 512.36 191.733 514.149C192.044 515.94 192.119 517.062 192.056 517.07Z" fill="#263238"/>
<path d="M200.93 473.795C200.965 473.803 200.875 474.406 200.683 475.49C200.486 476.573 200.213 478.142 199.897 480.084C199.261 483.966 198.522 489.352 198.06 495.335C197.605 501.32 197.516 506.757 197.554 510.69C197.572 512.657 197.602 514.249 197.632 515.35C197.657 516.451 197.655 517.061 197.619 517.063C197.583 517.065 197.518 516.459 197.43 515.36C197.337 514.261 197.251 512.668 197.186 510.698C197.053 506.758 197.084 501.301 197.541 495.296C198.004 489.293 198.803 483.896 199.534 480.021C199.898 478.083 200.226 476.522 200.485 475.45C200.738 474.376 200.895 473.787 200.93 473.795Z" fill="#263238"/>
<path d="M215.166 498.704C215.23 498.759 214.523 499.636 213.505 501.134C212.486 502.63 211.195 504.778 210.085 507.303C208.98 509.832 208.275 512.237 207.866 514C207.455 515.763 207.289 516.878 207.205 516.868C207.146 516.862 207.182 515.728 207.506 513.925C207.826 512.124 208.486 509.662 209.608 507.094C210.736 504.53 212.099 502.376 213.206 500.92C214.312 499.46 215.121 498.664 215.166 498.704Z" fill="#263238"/>
<path d="M389.508 501.962C389.568 501.927 390.083 502.682 390.826 503.955C391.569 505.228 392.53 507.026 393.482 509.064C394.433 511.104 395.194 512.995 395.693 514.382C396.192 515.769 396.44 516.648 396.375 516.672C396.305 516.698 395.936 515.865 395.351 514.518C394.767 513.171 393.956 511.313 393.01 509.284C392.063 507.257 391.159 505.443 390.501 504.13C389.844 502.817 389.443 501.999 389.508 501.962Z" fill="#263238"/>
<path d="M407.907 483.744C407.942 483.754 407.85 484.216 407.654 485.042C407.439 485.969 407.167 487.141 406.843 488.54C406.177 491.496 405.366 495.604 404.758 500.186C404.155 504.769 403.869 508.948 403.744 511.975C403.694 513.41 403.651 514.613 403.618 515.563C403.592 516.411 403.56 516.881 403.525 516.881C403.489 516.881 403.452 516.413 403.416 515.563C403.376 514.714 403.36 513.484 403.377 511.964C403.409 508.924 403.637 504.721 404.243 500.117C404.855 495.515 405.727 491.397 406.487 488.454C406.866 486.982 407.201 485.798 407.461 484.989C407.714 484.177 407.872 483.734 407.907 483.744Z" fill="#263238"/>
<path d="M274.804 491.879C274.828 491.852 275.148 492.102 275.709 492.58C276.275 493.051 277.048 493.786 277.957 494.74C279.778 496.642 282.056 499.525 283.983 503.068C285.901 506.618 287.073 510.1 287.673 512.664C287.976 513.946 288.17 514.995 288.255 515.727C288.349 516.457 288.384 516.862 288.349 516.867C288.257 516.882 288.007 515.276 287.316 512.756C286.631 510.238 285.419 506.822 283.525 503.316C281.622 499.817 279.422 496.937 277.685 494.989C275.951 493.034 274.742 491.947 274.804 491.879Z" fill="#263238"/>
<path d="M292.128 481.24C292.164 481.242 292.177 481.748 292.171 482.66C292.168 483.671 292.164 484.968 292.159 486.522C292.168 489.781 292.294 494.284 292.722 499.237C293.157 504.191 293.813 508.647 294.368 511.859C294.642 513.389 294.87 514.665 295.048 515.66C295.213 516.557 295.287 517.058 295.252 517.066C295.217 517.074 295.076 516.589 294.85 515.703C294.62 514.818 294.329 513.528 294.006 511.926C293.357 508.723 292.64 504.255 292.204 499.282C291.773 494.309 291.706 489.786 291.791 486.519C291.832 484.885 291.896 483.564 291.969 482.653C292.037 481.74 292.092 481.238 292.128 481.24Z" fill="#263238"/>
<path d="M307.433 502.442C307.579 502.52 305.858 505.521 304.677 509.577C303.467 513.626 303.283 517.08 303.119 517.066C303.054 517.063 303.017 516.196 303.14 514.8C303.261 513.406 303.573 511.485 304.178 509.429C304.786 507.375 305.566 505.593 306.221 504.356C306.875 503.118 307.377 502.409 307.433 502.442Z" fill="#263238"/>
<path d="M102.929 421.917H91.314V514.084H102.929V421.917Z" fill="#455A64"/>
<path d="M102.929 514.084C102.929 514.084 102.917 513.915 102.911 513.602C102.907 513.27 102.901 512.811 102.893 512.219C102.885 510.989 102.873 509.209 102.857 506.921C102.839 502.308 102.813 495.651 102.781 487.378C102.753 470.832 102.713 447.831 102.669 421.916L102.928 422.175C99.22 422.176 95.295 422.176 91.318 422.177H91.315H91.313L91.573 421.917C91.511 462.289 91.457 497.251 91.431 514.084L91.313 513.966C95.064 513.995 97.951 514.018 99.923 514.033C100.891 514.045 101.633 514.055 102.156 514.061C102.661 514.069 102.929 514.084 102.929 514.084C102.929 514.084 102.691 514.099 102.199 514.107C101.683 514.114 100.949 514.123 99.993 514.135C98.005 514.15 95.095 514.173 91.314 514.202L91.196 514.203V514.084C91.17 497.251 91.116 462.289 91.054 421.917L91.315 421.657H91.316H91.32C95.297 421.658 99.221 421.658 102.93 421.659H103.189L103.188 421.918C103.144 447.906 103.105 470.973 103.076 487.566C103.044 495.813 103.018 502.45 103 507.049C102.985 509.312 102.973 511.072 102.964 512.289C102.957 512.867 102.951 513.315 102.946 513.638C102.941 513.939 102.929 514.084 102.929 514.084Z" fill="#263238"/>
<g opacity="0.3">
<path d="M102.929 424.157H91.314V427.994H102.929V424.157Z" fill="black"/>
</g>
<path d="M349.931 421.917H338.316V514.084H349.931V421.917Z" fill="#455A64"/>
<path d="M349.931 514.084C349.931 514.084 349.919 513.915 349.913 513.602C349.909 513.27 349.903 512.811 349.896 512.219C349.888 510.989 349.876 509.209 349.86 506.921C349.842 502.308 349.816 495.651 349.784 487.378C349.756 470.832 349.716 447.831 349.672 421.916L349.931 422.175C346.223 422.176 342.298 422.176 338.321 422.177H338.318H338.317L338.576 421.917C338.513 462.289 338.459 497.251 338.433 514.084L338.315 513.966C342.066 513.995 344.953 514.018 346.925 514.033C347.893 514.045 348.635 514.055 349.157 514.061C349.663 514.069 349.931 514.084 349.931 514.084C349.931 514.084 349.693 514.099 349.201 514.107C348.685 514.114 347.952 514.123 346.995 514.135C345.007 514.15 342.097 514.173 338.316 514.202L338.198 514.203V514.084C338.172 497.251 338.118 462.289 338.056 421.917L338.317 421.657H338.318H338.319H338.322C342.299 421.658 346.223 421.658 349.932 421.659H350.191V421.918C350.147 447.906 350.108 470.973 350.079 487.566C350.047 495.813 350.021 502.45 350.003 507.049C349.988 509.312 349.976 511.072 349.967 512.289C349.959 512.867 349.954 513.315 349.95 513.638C349.943 513.939 349.931 514.084 349.931 514.084Z" fill="#263238"/>
<path d="M331.736 341.178H320.121V418.007H331.736V341.178Z" fill="#455A64"/>
<path d="M331.736 418.008C331.73 418.002 331.724 417.866 331.719 417.605C331.715 417.323 331.709 416.942 331.702 416.454C331.694 415.423 331.682 413.945 331.667 412.046C331.649 408.203 331.623 402.666 331.591 395.782C331.563 382.003 331.523 362.837 331.478 341.179L331.736 341.437C328.018 341.438 324.102 341.438 320.125 341.439C320.637 340.918 320.267 341.309 320.381 341.199V341.223V341.272V341.369V341.563V341.951V342.725V344.269C320.381 345.296 320.381 346.319 320.381 347.337C320.38 349.373 320.38 351.39 320.379 353.386C320.376 357.377 320.374 361.282 320.372 365.083C320.362 372.682 320.353 379.862 320.345 386.471C320.305 399.667 320.271 410.58 320.249 418.008L320.122 417.881C323.847 417.912 326.733 417.936 328.713 417.953C329.682 417.966 330.428 417.976 330.957 417.983C331.464 417.991 331.736 418.008 331.736 418.008C331.736 418.008 331.496 418.024 331.002 418.033C330.48 418.04 329.743 418.05 328.787 418.063C326.79 418.08 323.879 418.104 320.122 418.135L319.995 418.136V418.008C319.972 410.58 319.939 399.667 319.899 386.471C319.891 379.862 319.882 372.682 319.872 365.083C319.87 361.282 319.867 357.377 319.865 353.386C319.864 351.39 319.864 349.373 319.863 347.337C319.863 346.319 319.863 345.296 319.863 344.269V342.725V341.951V341.563V341.369V341.272V341.223V341.199C319.981 341.077 319.599 341.439 320.128 340.919C324.105 340.92 328.021 340.921 331.739 340.921H331.998L331.997 341.179C331.952 362.911 331.913 382.141 331.884 395.967C331.852 402.826 331.826 408.343 331.808 412.172C331.793 414.045 331.781 415.505 331.773 416.522C331.766 416.996 331.76 417.367 331.756 417.64C331.748 417.889 331.742 418.013 331.736 418.008Z" fill="#263238"/>
<path d="M125.158 341.178H113.543V418.007H125.158V341.178Z" fill="#455A64"/>
<path d="M125.158 418.008C125.152 418.002 125.146 417.866 125.141 417.605C125.137 417.323 125.131 416.942 125.124 416.454C125.116 415.423 125.104 413.945 125.089 412.046C125.071 408.203 125.045 402.666 125.013 395.782C124.984 382.003 124.945 362.837 124.9 341.179L125.158 341.437C121.44 341.438 117.525 341.438 113.547 341.439C114.059 340.918 113.689 341.309 113.803 341.199V341.223V341.272V341.369V341.563V341.951V342.725V344.269C113.803 345.296 113.803 346.319 113.803 347.337C113.802 349.373 113.802 351.39 113.801 353.386C113.799 357.377 113.796 361.282 113.794 365.083C113.784 372.682 113.775 379.862 113.767 386.471C113.727 399.667 113.693 410.58 113.671 418.008L113.544 417.881C117.269 417.912 120.155 417.936 122.135 417.953C123.104 417.966 123.85 417.976 124.379 417.983C124.885 417.991 125.158 418.008 125.158 418.008C125.158 418.008 124.918 418.024 124.424 418.033C123.902 418.04 123.165 418.05 122.209 418.063C120.211 418.08 117.301 418.104 113.543 418.135L113.416 418.136V418.008C113.393 410.58 113.36 399.667 113.32 386.471C113.312 379.862 113.302 372.682 113.293 365.083C113.291 361.282 113.288 357.377 113.286 353.386C113.285 351.39 113.285 349.373 113.284 347.337C113.284 346.319 113.284 345.296 113.284 344.269V342.725V341.951V341.563V341.369V341.272V341.223V341.199C113.402 341.077 113.02 341.439 113.549 340.919C117.526 340.92 121.442 340.921 125.16 340.921H125.419L125.418 341.179C125.373 362.911 125.334 382.141 125.305 395.967C125.273 402.826 125.247 408.343 125.229 412.172C125.214 414.045 125.202 415.505 125.194 416.522C125.187 416.996 125.181 417.367 125.177 417.64C125.169 417.889 125.163 418.013 125.158 418.008Z" fill="#263238"/>
<path d="M354.142 332.412H90.631V344.71H354.142V332.412Z" fill="#455A64"/>
<path d="M354.142 344.711C354.142 344.711 354.133 344.46 354.128 343.962C354.124 343.457 354.119 342.709 354.111 341.701C354.102 339.676 354.088 336.611 354.069 332.413L354.142 332.486C321.737 332.509 215.956 332.584 90.644 332.673H90.631L90.891 332.413C90.891 336.626 90.891 340.817 90.891 344.711L90.631 344.451C163.983 344.493 229.822 344.531 277.334 344.559C301.106 344.592 320.292 344.619 333.544 344.638C340.169 344.654 345.31 344.667 348.804 344.675C350.545 344.683 351.873 344.689 352.777 344.693C353.673 344.698 354.142 344.711 354.142 344.711C354.142 344.711 353.698 344.723 352.813 344.729C351.917 344.733 350.6 344.739 348.875 344.747C345.395 344.755 340.275 344.768 333.676 344.784C320.438 344.802 301.274 344.829 277.527 344.863C229.965 344.89 164.058 344.928 90.631 344.971H90.371V344.711C90.371 340.816 90.371 336.626 90.371 332.413V332.153H90.631H90.644C215.955 332.242 321.737 332.317 354.142 332.34H354.216V332.413C354.197 336.63 354.183 339.709 354.174 341.743C354.167 342.744 354.161 343.486 354.157 343.987C354.151 344.478 354.142 344.711 354.142 344.711Z" fill="#263238"/>
<path d="M354.825 350.86H91.314V363.158H354.825V350.86Z" fill="#455A64"/>
<path d="M354.825 363.158C354.825 363.158 354.816 362.907 354.811 362.409C354.807 361.904 354.802 361.156 354.794 360.148C354.785 358.123 354.771 355.058 354.751 350.86L354.824 350.933C322.419 350.956 216.638 351.031 91.326 351.12H91.313L91.573 350.86C91.573 355.073 91.573 359.264 91.573 363.158L91.313 362.898C164.665 362.94 230.504 362.978 278.016 363.006C301.788 363.039 320.974 363.066 334.226 363.085C340.851 363.101 345.992 363.114 349.486 363.122C351.227 363.13 352.555 363.136 353.459 363.14C354.357 363.146 354.825 363.158 354.825 363.158C354.825 363.158 354.381 363.17 353.497 363.176C352.601 363.18 351.284 363.186 349.559 363.194C346.079 363.202 340.959 363.215 334.359 363.231C321.121 363.25 301.957 363.276 278.21 363.31C230.648 363.337 164.741 363.375 91.314 363.418H91.054V363.158C91.054 359.263 91.054 355.073 91.054 350.86V350.6H91.314H91.327C216.638 350.689 322.42 350.764 354.825 350.787H354.899V350.86C354.88 355.077 354.866 358.156 354.856 360.19C354.849 361.191 354.843 361.933 354.839 362.434C354.834 362.925 354.825 363.158 354.825 363.158Z" fill="#263238"/>
<path d="M354.825 369.991H91.314V382.289H354.825V369.991Z" fill="#455A64"/>
<path d="M354.825 382.289C354.825 382.289 354.816 382.038 354.811 381.54C354.807 381.035 354.802 380.287 354.794 379.279C354.785 377.254 354.771 374.189 354.751 369.991L354.824 370.064C322.419 370.087 216.638 370.162 91.326 370.251H91.313L91.573 369.991C91.573 374.204 91.573 378.395 91.573 382.289L91.313 382.029C164.665 382.071 230.504 382.109 278.016 382.137C301.788 382.17 320.974 382.197 334.226 382.216C340.851 382.232 345.992 382.245 349.486 382.253C351.227 382.261 352.555 382.267 353.459 382.271C354.357 382.277 354.825 382.289 354.825 382.289C354.825 382.289 354.381 382.301 353.497 382.307C352.601 382.311 351.284 382.317 349.559 382.325C346.079 382.334 340.959 382.346 334.359 382.362C321.121 382.38 301.957 382.407 278.21 382.44C230.648 382.467 164.741 382.505 91.314 382.548H91.054V382.288C91.054 378.393 91.054 374.203 91.054 369.99V369.73H91.314H91.327C216.638 369.819 322.42 369.894 354.825 369.917H354.899V369.99C354.88 374.207 354.866 377.286 354.856 379.32C354.849 380.321 354.843 381.063 354.839 381.564C354.834 382.056 354.825 382.289 354.825 382.289Z" fill="#263238"/>
<path d="M354.825 389.122H91.314V401.42H354.825V389.122Z" fill="#455A64"/>
<path d="M354.825 401.421C354.825 401.421 354.816 401.17 354.811 400.672C354.807 400.167 354.802 399.419 354.794 398.411C354.785 396.386 354.771 393.321 354.751 389.123L354.824 389.196C322.419 389.219 216.638 389.294 91.326 389.383H91.313L91.573 389.123C91.573 393.336 91.573 397.527 91.573 401.421L91.313 401.161C164.665 401.203 230.504 401.241 278.016 401.269C301.788 401.302 320.974 401.329 334.226 401.348C340.851 401.364 345.992 401.377 349.486 401.385C351.227 401.393 352.555 401.399 353.459 401.403C354.357 401.408 354.825 401.421 354.825 401.421C354.825 401.421 354.381 401.433 353.497 401.439C352.601 401.443 351.284 401.449 349.559 401.457C346.079 401.465 340.959 401.478 334.359 401.494C321.121 401.512 301.957 401.539 278.21 401.573C230.648 401.6 164.741 401.638 91.314 401.681H91.054V401.421C91.054 397.526 91.054 393.336 91.054 389.123V388.863H91.314H91.327C216.638 388.952 322.42 389.027 354.825 389.05H354.899V389.123C354.88 393.34 354.866 396.419 354.856 398.453C354.849 399.454 354.843 400.196 354.839 400.697C354.834 401.188 354.825 401.421 354.825 401.421Z" fill="#263238"/>
<path d="M359.616 411.858H79.868V424.156H359.616V411.858Z" fill="#455A64"/>
<path d="M359.616 424.157C359.616 424.157 359.607 423.907 359.602 423.41C359.598 422.906 359.593 422.16 359.586 421.153C359.577 419.13 359.563 416.065 359.545 411.859L359.616 411.93C326.032 411.953 213.43 412.029 79.882 412.119H79.868L80.128 411.859C80.128 416.072 80.128 420.264 80.128 424.157L79.868 423.897C157.707 423.939 227.605 423.977 278.055 424.005C303.296 424.038 323.67 424.065 337.743 424.084C344.779 424.1 350.239 424.113 353.948 424.121C355.797 424.129 357.208 424.135 358.167 424.139C359.119 424.144 359.616 424.157 359.616 424.157C359.616 424.157 359.144 424.169 358.204 424.175C357.253 424.179 355.854 424.185 354.02 424.193C350.324 424.202 344.885 424.214 337.875 424.23C323.816 424.249 303.464 424.275 278.248 424.309C227.749 424.336 157.783 424.374 79.868 424.417H79.608V424.157C79.608 420.264 79.608 416.072 79.608 411.859V411.599H79.868H79.882C213.43 411.689 326.032 411.766 359.616 411.788H359.688V411.859C359.669 416.083 359.656 419.162 359.647 421.194C359.64 422.194 359.634 422.935 359.63 423.435C359.624 423.924 359.616 424.157 359.616 424.157Z" fill="#263238"/>
<g opacity="0.3">
<path d="M349.931 424.157H338.316V427.994H349.931V424.157Z" fill="black"/>
</g>
<path d="M208.306 270.32L205.797 286.513L199.338 301.253L189.766 295.14L186.364 286.537L183.51 279.322C183.51 279.322 173.4 281.754 169.373 272.302C167.429 267.738 164.19 258.014 161.361 249.178C158.318 239.676 163.081 229.431 172.308 225.634L173.225 225.257C183.347 221.767 191.965 228.414 195.174 238.629L208.306 270.32Z" fill="#A2675F"/>
<path d="M183.497 279.321C183.497 279.321 189.702 277.339 194.434 270.705C194.434 270.705 194.32 278.747 184.487 281.792L183.497 279.321Z" fill="#7A4A45"/>
<path d="M167.536 256.429C167.805 257.156 168.643 257.527 169.407 257.26C170.17 256.993 170.572 256.188 170.302 255.461C170.032 254.734 169.195 254.362 168.432 254.629C167.668 254.896 167.267 255.702 167.536 256.429Z" fill="#263238"/>
<path d="M164.968 252.543C165.209 252.651 165.923 251.467 167.385 250.87C168.836 250.253 170.217 250.563 170.301 250.319C170.346 250.208 170.043 249.959 169.437 249.811C168.838 249.662 167.92 249.655 167.012 250.033C166.105 250.412 165.477 251.062 165.179 251.585C164.873 252.115 164.852 252.497 164.968 252.543Z" fill="#263238"/>
<path d="M180.271 250.751C180.54 251.478 181.378 251.849 182.143 251.581C182.906 251.314 183.308 250.509 183.038 249.782C182.768 249.055 181.93 248.683 181.168 248.95C180.403 249.219 180.001 250.025 180.271 250.751Z" fill="#263238"/>
<path d="M179.347 246.145C179.575 246.278 180.415 245.179 181.932 244.744C183.441 244.288 184.78 244.746 184.891 244.512C184.948 244.406 184.676 244.126 184.087 243.914C183.508 243.7 182.596 243.594 181.652 243.872C180.709 244.151 180.015 244.729 179.661 245.216C179.3 245.709 179.237 246.088 179.347 246.145Z" fill="#263238"/>
<path d="M178.934 260.358C178.907 260.272 177.935 260.489 176.387 260.906C175.998 261.021 175.615 261.092 175.448 260.864C175.249 260.631 175.24 260.165 175.242 259.657C175.221 258.611 175.199 257.514 175.176 256.365C175.044 251.693 174.785 247.914 174.597 247.92C174.409 247.927 174.363 251.719 174.495 256.391C174.537 257.539 174.575 258.634 174.614 259.681C174.648 260.163 174.602 260.743 175.023 261.224C175.238 261.461 175.595 261.551 175.86 261.517C176.129 261.492 176.34 261.409 176.529 261.344C178.042 260.814 178.963 260.443 178.934 260.358Z" fill="#263238"/>
<path d="M176.555 239.929C176.862 240.267 178.243 239.479 180.04 238.98C181.828 238.445 183.416 238.379 183.496 237.929C183.527 237.717 183.133 237.443 182.416 237.288C181.705 237.132 180.671 237.131 179.596 237.44C178.522 237.751 177.647 238.301 177.128 238.812C176.603 239.324 176.415 239.766 176.555 239.929Z" fill="#263238"/>
<path d="M162.883 246.798C163.276 247.024 164.14 246.266 165.343 245.752C166.528 245.196 167.668 245.056 167.761 244.612C167.795 244.401 167.497 244.135 166.921 244.006C166.351 243.875 165.508 243.923 164.688 244.29C163.868 244.658 163.271 245.255 162.99 245.768C162.703 246.284 162.703 246.683 162.883 246.798Z" fill="#263238"/>
<path d="M197.292 245.984C197.425 245.847 203.025 241.367 205.49 247.948C207.955 254.529 200.84 255.646 200.758 255.462C200.677 255.277 197.292 245.984 197.292 245.984Z" fill="#A2675F"/>
<path d="M201.835 252.215C201.856 252.183 201.98 252.252 202.207 252.269C202.428 252.284 202.775 252.222 203.07 251.966C203.67 251.45 203.841 250.127 203.429 248.929C203.221 248.324 202.882 247.801 202.493 247.408C202.112 247.002 201.674 246.782 201.301 246.851C200.923 246.901 200.753 247.203 200.742 247.419C200.723 247.636 200.814 247.752 200.783 247.776C200.771 247.799 200.6 247.719 200.552 247.427C200.53 247.286 200.549 247.102 200.656 246.918C200.766 246.73 200.974 246.578 201.227 246.513C201.748 246.358 202.379 246.654 202.807 247.085C203.263 247.508 203.659 248.091 203.891 248.77C204.346 250.112 204.132 251.607 203.283 252.238C202.865 252.532 202.427 252.537 202.169 252.457C201.906 252.37 201.817 252.236 201.835 252.215Z" fill="#7A4A45"/>
<path d="M155.745 238.527C155.512 237.152 155.949 235.565 157.147 234.85C156.112 233.857 155.881 232.13 156.619 230.899C157.357 229.669 158.99 229.06 160.353 229.506C159.458 227.558 161.234 224.961 163.374 225.089C162.831 223.969 163.165 222.495 164.137 221.718C165.109 220.941 166.621 220.941 167.593 221.718C167.992 218.829 171.667 216.954 174.24 218.328C176.45 216.335 180.227 216.431 182.333 218.535C184.501 217.774 187.107 218.501 188.567 220.275C189.975 219.827 191.61 220.185 192.703 221.179C193.796 222.174 194.305 223.768 193.991 225.212C195.961 225.327 197.372 227.788 196.476 229.546C197.634 229.622 198.715 230.411 199.14 231.491C199.566 232.57 199.315 233.884 198.521 234.731C199.526 234.456 200.428 235.562 200.522 236.599C200.616 237.637 200.229 238.66 200.216 239.702C200.205 240.56 200.447 241.403 200.489 242.261C200.566 243.873 199.881 245.499 198.687 246.582C198.77 246.624 198.854 246.665 198.937 246.707C199.45 247.469 198.525 248.52 197.606 248.512C196.688 248.504 195.909 247.879 195.161 247.346C194.304 246.735 193.367 246.188 192.743 245.34C192.119 244.493 191.905 243.223 192.584 242.419C191.309 242.51 190.115 241.664 189.424 240.589C188.733 239.514 188.449 238.235 188.178 236.987C187.777 235.144 187.377 233.302 186.976 231.459C184.598 232.371 181.724 231.816 179.855 230.086C178.708 232.077 175.604 232.547 173.919 230.985C174.125 233.622 171.903 236.207 169.265 236.4C170.076 237.638 168.177 239.881 167.001 240.78C165.825 241.679 163.783 241.428 163.783 241.428C163.783 241.428 162.063 243.709 160.614 243.725C159.191 243.741 156.9 242.853 157.174 241.237C157.176 241.237 155.978 239.902 155.745 238.527Z" fill="#263238"/>
<path d="M196.8 229.391C196.728 229.394 196.883 229.881 196.502 230.495C196.313 230.787 195.975 231.08 195.518 231.124C195.071 231.177 194.51 230.978 194.217 230.537L193.979 230.18L193.788 230.57C193.514 231.131 192.844 231.594 192.121 231.586C191.306 231.578 190.59 230.952 190.401 230.278L190.288 229.877L189.996 230.169C189.627 230.539 189.117 230.707 188.678 230.701C188.234 230.699 187.858 230.525 187.591 230.328C187.052 229.917 186.931 229.485 186.869 229.513C186.83 229.51 186.842 230.005 187.402 230.553C187.678 230.813 188.112 231.067 188.661 231.107C189.2 231.148 189.838 230.98 190.337 230.517L189.933 230.408C190.157 231.29 191.027 232.093 192.117 232.115C193.07 232.119 193.895 231.527 194.237 230.783L193.809 230.816C194.258 231.434 194.994 231.637 195.578 231.538C196.186 231.439 196.59 231.013 196.769 230.645C197.132 229.857 196.827 229.354 196.8 229.391Z" fill="#455A64"/>
<path d="M200.343 235.209C200.294 235.184 200.186 235.487 199.761 235.768C199.372 236.036 198.513 236.272 197.843 235.747L197.622 235.574L197.521 235.839C197.317 236.374 196.76 236.89 196.057 236.985C195.372 237.091 194.548 236.682 194.217 235.969L194.022 235.55L193.757 235.934C193.694 236.026 193.612 236.116 193.516 236.193C193.084 236.544 192.436 236.586 192.024 236.296C191.593 236.014 191.37 235.471 191.438 235.025L191.514 234.523L191.084 234.783C190.556 235.102 189.934 235.155 189.436 235.035C188.932 234.917 188.55 234.629 188.296 234.345C187.786 233.758 187.746 233.255 187.68 233.273C187.647 233.262 187.575 233.804 188.076 234.522C188.325 234.867 188.743 235.238 189.334 235.414C189.915 235.589 190.654 235.566 191.324 235.191L190.97 234.948C190.86 235.585 191.135 236.307 191.736 236.722C192.348 237.153 193.242 237.095 193.847 236.605C193.984 236.495 194.104 236.364 194.196 236.227L193.737 236.191C194.188 237.134 195.227 237.624 196.129 237.472C197.034 237.321 197.684 236.661 197.908 235.977L197.586 236.069C198.031 236.397 198.548 236.45 198.95 236.382C199.361 236.32 199.679 236.137 199.898 235.953C200.342 235.566 200.371 235.209 200.343 235.209Z" fill="#455A64"/>
<path d="M164.149 224.552C164.191 224.573 164.251 224.208 164.707 223.829C164.932 223.649 165.269 223.479 165.677 223.492C166.078 223.5 166.557 223.694 166.853 224.106L167.093 224.441L167.151 224.028C167.254 223.29 167.793 222.451 168.689 222.08C169.558 221.704 170.807 221.952 171.505 222.827L171.805 223.203L171.931 222.737C172.161 221.885 172.839 221.102 173.732 220.733C174.615 220.348 175.724 220.487 176.567 221.075C176.911 221.309 177.197 221.615 177.41 221.956L177.563 222.201L177.793 222.031C178.918 221.202 180.581 221.343 181.487 222.203C182.423 223.063 182.652 224.441 182.279 225.427L182.139 225.797L182.522 225.713C183.441 225.511 184.344 225.745 184.982 226.154C185.632 226.562 186.021 227.146 186.234 227.652C186.655 228.692 186.471 229.37 186.542 229.366C186.56 229.369 186.617 229.214 186.644 228.904C186.668 228.596 186.657 228.126 186.46 227.565C186.268 227.012 185.876 226.35 185.171 225.868C184.48 225.389 183.489 225.092 182.432 225.297L182.675 225.582C183.132 224.442 182.91 222.876 181.822 221.842C180.74 220.809 178.839 220.625 177.477 221.609L177.859 221.684C177.606 221.275 177.268 220.916 176.866 220.642C175.889 219.957 174.577 219.795 173.531 220.258C172.489 220.7 171.72 221.606 171.459 222.616L171.884 222.526C171.013 221.475 169.556 221.227 168.522 221.695C167.479 222.162 166.906 223.138 166.82 223.99L167.118 223.912C166.724 223.413 166.148 223.221 165.674 223.236C165.188 223.25 164.816 223.476 164.586 223.698C164.351 223.924 164.24 224.153 164.186 224.308C164.136 224.462 164.136 224.549 164.149 224.552Z" fill="#455A64"/>
<path d="M183.275 258.766C183.032 258.85 183.681 260.436 182.787 262.119C181.897 263.804 180.135 264.322 180.213 264.548C180.232 264.656 180.716 264.701 181.437 264.427C182.146 264.163 183.075 263.518 183.622 262.489C184.165 261.459 184.143 260.392 183.929 259.72C183.718 259.032 183.38 258.712 183.275 258.766Z" fill="#263238"/>
<path d="M173.533 287.567L165.607 309.885L167.438 334.285L172.485 376.435C172.485 376.435 191.053 370.165 191.888 370.79C192.722 371.416 183.674 328.056 183.674 328.056L190.22 292.781L189.798 282.392L173.533 287.567Z" fill="#4273F4"/>
<path d="M173.533 287.567L164.815 307.579L146.856 314.644L127.946 320.459L130.638 334.01C131.189 336.787 133.974 338.518 136.708 337.785L152.641 333.51L167.484 332.828L175.201 314.89L173.533 287.567Z" fill="#4273F4"/>
<path d="M134.15 314.891L135.47 313.253C135.47 313.253 137.912 313.241 139.232 314.072C140.552 314.903 142.598 317.939 142.862 319.523C143.126 321.107 142.862 324.143 142.862 324.143L133.82 314.891" fill="#A2675F"/>
<path d="M116.6 305.171C116.6 305.444 133.572 323.455 133.572 323.455L136.767 326.609H147.032L127.229 304.626L118.69 303.173L116.6 305.171Z" fill="#263238"/>
<path d="M185.547 345.181C185.531 345.189 185.397 344.973 185.158 344.552C184.903 344.082 184.567 343.464 184.147 342.691C183.288 341.066 182.071 338.699 180.654 335.731C179.248 332.759 177.593 329.203 176.149 325.084C175.804 324.048 175.458 322.982 175.218 321.852C175.057 321.301 175.041 320.696 174.952 320.11C174.932 319.527 174.909 318.939 174.907 318.346C174.879 315.975 174.94 313.525 175.032 311.018C175.149 307.844 175.314 304.77 175.502 301.849L175.512 301.696L175.652 301.635C177.478 300.834 179.236 300.062 180.917 299.325L180.983 299.777C179.579 299.595 178.229 299.421 176.936 299.253L176.604 299.21L176.771 298.923C179.366 294.456 181.531 290.728 183.079 288.062C183.83 286.798 184.431 285.788 184.872 285.044C185.067 284.728 185.228 284.47 185.359 284.258C185.472 284.082 185.536 283.994 185.546 284C185.556 284.006 185.513 284.105 185.419 284.292C185.303 284.513 185.162 284.782 184.99 285.111C184.574 285.869 184.009 286.9 183.303 288.189C181.794 290.878 179.684 294.638 177.156 299.143L176.991 298.813C178.285 298.97 179.637 299.135 181.042 299.305L181.893 299.408L181.108 299.757C179.431 300.503 177.676 301.284 175.855 302.094L176.005 301.88C175.828 304.794 175.669 307.867 175.552 311.035C175.46 313.537 175.397 315.982 175.417 318.338C175.418 318.927 175.439 319.51 175.456 320.086C175.543 320.645 175.548 321.202 175.705 321.747C175.932 322.844 176.269 323.901 176.603 324.927C178.009 329.019 179.627 332.587 180.987 335.572C182.359 338.555 183.524 340.944 184.327 342.596C184.71 343.386 185.017 344.019 185.25 344.5C185.459 344.94 185.562 345.172 185.547 345.181Z" fill="#263238"/>
<path d="M126.625 314.891C126.625 314.891 124.051 316.751 124.117 317.807C124.183 318.863 124.776 319.985 125.37 320.183C125.965 320.381 127.747 321.305 127.747 321.305C127.747 321.305 126.163 322.823 126.625 324.407C127.087 325.991 128.143 326.387 128.143 326.387C128.143 326.387 128.209 328.433 128.803 329.621C129.397 330.809 131.311 331.205 131.311 331.205C131.311 331.205 132.367 333.358 133.291 334.427C134.215 335.496 136.063 335.825 136.063 335.825C136.063 335.825 138.439 336.089 139.693 335.231C140.947 334.373 142.333 333.515 142.399 330.611C142.399 330.611 148.075 327.773 148.141 326.321C148.207 324.869 147.547 324.407 147.547 324.407L144.709 324.935C144.709 324.935 144.313 323.417 143.455 323.285C142.597 323.153 132.234 325.661 132.234 325.661C132.234 325.661 139.296 324.539 139.494 323.153C139.692 321.767 139.758 320.579 138.702 320.315C137.646 320.051 130.123 320.857 130.123 320.857L129.729 319.523C129.729 319.523 131.771 319.589 131.771 317.807C131.771 316.025 130.649 315.629 130.649 315.629L126.625 314.891Z" fill="#A2675F"/>
<path d="M185.547 284.001L186.415 290.892L181.079 320.855L186.488 346.733L214.527 355.017L225.556 350.265L221.794 277.636L211.773 270.597L207.924 268.012L193.478 289.871L185.547 284.001Z" fill="#FAFAFA"/>
<path d="M210.953 270.046L217.96 273.175L242.781 276.512L256.17 346.933L257.852 355.018L283.518 393.428C284.695 395.19 284.132 397.58 282.292 398.632L261.264 410.646C259.649 411.47 257.673 410.952 256.671 409.442L229.954 369.181L216.708 352.228C216.708 352.228 208.782 328.241 207.739 318.021C206.696 307.801 207.144 296.853 207.739 291.114C208.377 284.971 210.953 270.046 210.953 270.046Z" fill="#4273F4"/>
<path d="M242.781 276.512C246.055 278.231 248.364 281.35 249.051 284.983C250.63 293.341 255.394 307.923 257.18 323.491C259.678 345.272 253.825 351.992 251.06 355.748C248.355 359.424 231.177 367.495 231.177 367.495L218.309 350.347L232.561 338.669L231.31 308.425C231.31 308.425 226.304 301.542 228.807 291.322C231.309 281.101 238.61 275.886 242.781 276.512Z" fill="#4273F4"/>
<g opacity="0.3">
<path d="M256.061 346.355C254.11 351.642 251.882 356.099 247.337 358.614C242.503 361.289 235.77 365.07 231.177 367.495L234.543 372.711C239.813 371.904 249.529 365.759 252.7 361.474C255.871 357.189 256.828 351.631 256.061 346.355Z" fill="black"/>
</g>
<path d="M230.961 310.03C230.97 310.029 231.002 310.182 231.054 310.482C231.108 310.806 231.181 311.248 231.275 311.815C231.461 313.016 231.729 314.742 232.073 316.954C232.747 321.449 233.716 327.914 234.915 335.907L234.93 336.007L234.853 336.075C230.114 340.252 224.562 345.147 218.464 350.522L218.497 350.205C222.46 355.475 226.815 361.266 231.382 367.34L231.063 367.264C235.343 365.107 239.767 362.77 244.153 360.176C245.398 359.427 246.631 358.674 247.815 357.87C249.005 357.081 250.163 356.232 251.133 355.266C252.897 353.143 254.232 350.627 255.204 348.101C257.156 342.995 257.647 337.648 257.604 332.636C257.533 327.603 256.935 322.841 256.241 318.413C255.55 313.983 254.752 309.879 253.963 306.147C252.386 298.681 250.873 292.691 249.808 288.558C249.271 286.514 248.851 284.917 248.558 283.804C248.42 283.279 248.312 282.869 248.233 282.567C248.162 282.288 248.129 282.144 248.138 282.141C248.138 282.141 248.197 282.278 248.285 282.552C248.376 282.85 248.501 283.256 248.66 283.775C248.982 284.852 249.44 286.446 250.005 288.505C251.13 292.624 252.699 298.604 254.324 306.069C255.137 309.801 255.957 313.906 256.668 318.344C257.382 322.778 257.999 327.559 258.084 332.628C258.14 337.676 257.658 343.086 255.68 348.282C254.681 350.869 253.368 353.378 251.511 355.617C250.475 356.651 249.308 357.498 248.105 358.299C246.909 359.111 245.67 359.869 244.419 360.621C240.013 363.226 235.586 365.562 231.29 367.721L231.1 367.817L230.971 367.645C226.416 361.562 222.072 355.762 218.12 350.484L217.989 350.31L218.153 350.167C224.274 344.818 229.847 339.947 234.604 335.79L234.542 335.958C233.414 327.955 232.501 321.481 231.866 316.981C231.565 314.762 231.33 313.031 231.167 311.827C231.095 311.257 231.04 310.812 230.999 310.486C230.965 310.186 230.952 310.031 230.961 310.03Z" fill="#263238"/>
<path d="M212.831 335.869C212.813 335.866 212.833 335.626 212.886 335.172C212.952 334.667 213.037 334.009 213.143 333.19C213.398 331.412 213.752 328.943 214.185 325.917C215.061 319.776 216.429 311.318 217.758 301.948C218.376 297.412 218.965 293.086 219.502 289.146L219.655 289.404C218.178 288.837 216.763 288.293 215.415 287.776L215.003 287.618L215.371 287.379C216.894 286.393 218.318 285.471 219.632 284.62L219.546 284.813C219.04 281.275 218.626 278.384 218.329 276.313C218.203 275.348 218.102 274.576 218.026 273.991C217.963 273.459 217.939 273.177 217.958 273.174C217.977 273.171 218.039 273.447 218.138 273.973C218.241 274.554 218.376 275.321 218.545 276.279C218.883 278.344 219.355 281.226 219.933 284.753L219.953 284.876L219.847 284.946C218.542 285.811 217.128 286.749 215.617 287.752L215.574 287.355C216.926 287.863 218.344 288.395 219.826 288.951L220.005 289.018L219.98 289.209C219.455 293.151 218.878 297.478 218.274 302.016C216.945 311.388 215.518 319.844 214.549 325.972C214.047 328.988 213.638 331.449 213.343 333.221C213.197 334.033 213.079 334.686 212.989 335.187C212.903 335.638 212.849 335.872 212.831 335.869Z" fill="#263238"/>
<path d="M239.021 277.456C239.084 277.54 237.81 278.415 236.102 280.191C235.241 281.071 234.317 282.213 233.397 283.552C232.505 284.909 231.633 286.474 230.913 288.205C230.214 289.946 229.741 291.674 229.428 293.268C229.147 294.868 229.008 296.331 229.007 297.562C228.983 300.026 229.28 301.542 229.176 301.558C229.141 301.565 229.052 301.191 228.923 300.505C228.852 300.163 228.781 299.741 228.746 299.246C228.705 298.752 228.627 298.189 228.639 297.564C228.593 296.313 228.696 294.82 228.956 293.184C229.249 291.554 229.718 289.785 230.431 288.008C231.166 286.24 232.069 284.649 233.001 283.281C233.961 281.931 234.932 280.793 235.841 279.932C236.271 279.477 236.721 279.13 237.096 278.806C237.468 278.477 237.813 278.226 238.104 278.031C238.675 277.632 239 277.427 239.021 277.456Z" fill="#263238"/>
<path d="M167.329 332.84C167.185 332.85 166.726 327.997 166.302 322.001C165.878 316.003 165.651 311.135 165.795 311.125C165.938 311.115 166.398 315.967 166.822 321.965C167.246 327.96 167.473 332.83 167.329 332.84Z" fill="#263238"/>
<path d="M251.871 376.986L255.723 384.853L273.554 373.441L267.379 366.452L251.871 376.986Z" fill="#4273F4"/>
<path d="M251.871 376.986C251.844 376.979 252.219 376.699 252.94 376.184C253.725 375.631 254.78 374.887 256.083 373.968C258.881 372.033 262.738 369.365 267.242 366.251L267.418 366.129L267.562 366.291C269.475 368.448 271.566 370.806 273.75 373.269L273.952 373.497L273.695 373.661C273.448 373.819 273.182 373.989 272.915 374.161C266.282 378.372 260.271 382.188 255.825 385.011L255.646 385.125L255.557 384.936C254.417 382.516 253.483 380.535 252.803 379.09C252.511 378.451 252.274 377.932 252.087 377.521C251.928 377.164 251.853 376.981 251.871 376.986C251.889 376.991 251.998 377.183 252.19 377.543C252.404 377.951 252.674 378.468 253.007 379.104C253.719 380.504 254.697 382.424 255.891 384.771L255.623 384.696C260.049 381.841 266.032 377.98 272.633 373.721C272.9 373.55 273.167 373.38 273.413 373.222L273.358 373.613C271.183 371.142 269.1 368.777 267.195 366.613L267.514 366.653C263.009 369.658 259.149 372.232 256.35 374.098C254.998 374.983 253.905 375.698 253.09 376.231C252.737 376.456 252.445 376.642 252.202 376.796C251.998 376.925 251.884 376.989 251.871 376.986Z" fill="#263238"/>
<g opacity="0.3">
<path d="M252.043 377.338C252.118 377.49 255.999 389.414 255.999 389.414L272.629 377.608L271.201 374.947L255.723 384.853L252.043 377.338Z" fill="black"/>
</g>
<g opacity="0.3">
<path d="M218.465 276.462L221.418 286.209L218.465 287.567L222.409 289.508C222.409 289.508 216.192 323.507 215.408 326.61C214.624 329.713 213.672 330.71 213.672 330.71L219.742 289.18L215.496 287.568L219.742 284.785L218.465 276.462Z" fill="black"/>
</g>
<path d="M152.67 329.589C152.498 329.594 152.816 326.369 151.541 322.693C150.314 319 148.099 316.636 148.239 316.534C148.282 316.493 148.891 317.02 149.679 318.052C150.467 319.079 151.392 320.643 152.034 322.526C152.67 324.41 152.889 326.214 152.888 327.508C152.891 328.807 152.73 329.596 152.67 329.589Z" fill="#263238"/>
<g opacity="0.3">
<path d="M165.682 310.163C162.717 317.556 163.787 325.671 167.257 332.84C166.722 324.591 166.405 318.161 165.682 310.163Z" fill="black"/>
</g>
<path d="M208.832 276.206C208.862 276.226 208.673 276.574 208.305 277.186C207.882 277.895 207.365 278.761 206.757 279.78C205.463 281.975 203.734 285.043 202.027 288.534C200.871 290.884 199.879 293.127 199.073 295.034L198.957 295.309L198.728 295.126C197.088 293.815 195.84 292.588 195.009 291.694C194.179 290.799 193.758 290.242 193.791 290.213C193.829 290.179 194.316 290.674 195.195 291.51C196.074 292.344 197.355 293.512 199.004 294.773L198.659 294.865C199.426 292.932 200.399 290.667 201.56 288.305C203.275 284.796 205.065 281.741 206.444 279.587C207.135 278.511 207.718 277.656 208.136 277.075C208.556 276.496 208.802 276.186 208.832 276.206Z" fill="#263238"/>
<path d="M192.411 290.023C192.543 290.073 191.801 292.335 190.745 295.112L190.612 295.461L190.331 295.216C190.29 295.18 190.246 295.142 190.201 295.103C187.88 293.081 186.39 291.065 186.498 290.982C186.614 290.884 188.26 292.722 190.544 294.711C190.588 294.749 190.631 294.788 190.672 294.823L190.259 294.927C191.323 292.153 192.279 289.973 192.411 290.023Z" fill="#263238"/>
<path d="M195.345 341.174C195.327 341.175 195.301 341.007 195.267 340.685C195.234 340.303 195.193 339.838 195.144 339.277C195.057 337.972 194.939 336.22 194.797 334.092C194.531 329.713 194.215 323.66 193.951 316.97C193.694 310.278 193.542 304.216 193.542 299.826C193.538 297.631 193.569 295.855 193.612 294.628C193.64 294.065 193.664 293.599 193.684 293.216C193.706 292.893 193.726 292.724 193.744 292.725C193.762 292.726 193.777 292.895 193.789 293.218C193.796 293.601 193.805 294.067 193.815 294.63C193.839 295.937 193.872 297.691 193.911 299.821C194.006 304.205 194.215 310.26 194.473 316.949C194.742 323.598 194.986 329.615 195.167 334.073C195.242 336.204 195.303 337.958 195.349 339.265C195.359 339.828 195.367 340.295 195.374 340.678C195.372 341.003 195.363 341.173 195.345 341.174Z" fill="#263238"/>
<path d="M136.801 476.216L139.389 500.634C139.389 500.634 115.439 511.466 115.478 516.025L163.004 512.707L160.532 474.495L136.801 476.216Z" fill="#FF725E"/>
<path d="M153.941 497.549C154.878 497.736 155.586 498.726 155.438 499.67C155.289 500.614 154.289 501.343 153.348 501.172C152.408 501.002 151.521 499.84 151.775 498.918C152.028 497.997 153.25 497.206 154.122 497.597" fill="#E0E0E0"/>
<path d="M163.107 513.704L162.872 510.001L117.186 513.482C117.186 513.482 115.135 514.551 115.478 516.024L163.107 513.704Z" fill="#E0E0E0"/>
<path d="M138.602 500.446C138.626 500.678 139.794 500.702 140.987 501.368C142.199 502.003 142.857 502.967 143.064 502.861C143.275 502.801 142.832 501.438 141.372 500.656C139.92 499.862 138.537 500.236 138.602 500.446Z" fill="#263238"/>
<path d="M133.761 502.856C133.724 503.085 134.756 503.409 135.613 504.336C136.497 505.237 136.77 506.285 137 506.259C137.221 506.28 137.286 504.91 136.199 503.778C135.123 502.636 133.751 502.634 133.761 502.856Z" fill="#263238"/>
<path d="M131.347 509.019C131.561 509.054 131.803 507.872 131.119 506.643C130.443 505.408 129.314 504.983 129.229 505.184C129.111 505.384 129.863 506.017 130.41 507.035C130.98 508.039 131.114 509.013 131.347 509.019Z" fill="#263238"/>
<path d="M138.63 494.816C138.742 495.021 139.784 494.626 141.102 494.624C142.42 494.595 143.471 494.964 143.579 494.756C143.702 494.579 142.645 493.789 141.093 493.814C139.54 493.827 138.503 494.641 138.63 494.816Z" fill="#263238"/>
<path d="M128.338 377.686L106.327 388.57C106.327 388.57 87.871 369.853 83.608 371.468L103.18 414.903L138.171 399.351L128.338 377.686Z" fill="#FF725E"/>
<path d="M114.261 401.153C114.41 402.097 113.727 403.104 112.79 403.292C111.853 403.48 110.823 402.793 110.658 401.852C110.492 400.911 111.276 399.677 112.228 399.595C113.18 399.514 114.345 400.385 114.28 401.339" fill="#E0E0E0"/>
<path d="M102.28 415.347L105.672 413.844L86.585 372.191C86.585 372.191 84.872 370.636 83.609 371.469L102.28 415.347Z" fill="#E0E0E0"/>
<path d="M106.231 387.767C106.022 387.87 106.404 388.973 106.192 390.324C106.015 391.681 105.339 392.633 105.511 392.79C105.641 392.967 106.766 392.08 106.993 390.439C107.236 388.802 106.405 387.633 106.231 387.767Z" fill="#263238"/>
<path d="M102.294 384.06C102.067 384.104 102.12 385.185 101.547 386.31C101.008 387.451 100.12 388.07 100.224 388.277C100.281 388.491 101.589 388.079 102.274 386.667C102.972 385.262 102.498 383.974 102.294 384.06Z" fill="#263238"/>
<path d="M95.676 383.93C95.718 384.143 96.91 383.961 97.826 382.893C98.75 381.831 98.758 380.625 98.54 380.614C98.312 380.573 97.979 381.498 97.213 382.363C96.469 383.246 95.602 383.709 95.676 383.93Z" fill="#263238"/>
<path d="M111.523 385.843C111.37 386.019 112.101 386.86 112.559 388.096C113.043 389.322 113.061 390.436 113.292 390.465C113.501 390.519 113.876 389.254 113.315 387.806C112.766 386.355 111.642 385.664 111.523 385.843Z" fill="#263238"/>
<path d="M139.084 391.53C139.084 391.53 131.202 393.136 129.596 401.601C127.99 410.066 133.819 495.26 133.819 495.26L163.716 492.864L161.89 435.457L161.154 423.885L163.716 421.921L216.266 412.675L208.27 390.947L199.482 375.654L159.227 385.693L139.084 391.53Z" fill="#263238"/>
<path d="M238.028 377.176C238.028 377.176 216.286 345.747 209.931 341.174C204.688 337.401 196.81 337.407 191.942 339.598C187.074 341.789 110.889 379.553 110.889 379.553L122.058 407.513L194.523 382.4L205.324 399.351L215.377 412.674L243.615 412.895C244.953 412.895 251.015 400.917 251.015 400.917L238.028 377.176Z" fill="#263238"/>
<path d="M129.317 408.172C129.308 408.172 129.303 408.073 129.303 407.878C129.306 407.654 129.309 407.37 129.313 407.015C129.322 406.623 129.334 406.155 129.346 405.61C129.395 405.057 129.482 404.421 129.565 403.703C129.616 402.979 129.866 402.207 130.035 401.343C130.119 400.909 130.305 400.484 130.445 400.027C130.591 399.57 130.75 399.099 130.985 398.638C131.809 396.762 133.151 394.722 135.257 393.157C136.307 392.382 137.53 391.723 138.932 391.356C140.321 391.121 141.766 390.876 143.261 390.623C146.248 390.123 149.438 389.59 152.792 389.029C159.511 387.916 166.891 386.694 174.638 385.411C181.65 384.262 188.361 383.163 194.483 382.16L194.641 382.134L194.727 382.269C200.537 391.342 205.257 399.233 209.224 404.392C211.15 406.976 212.685 409.036 213.763 410.483C214.276 411.167 214.679 411.706 214.976 412.101C215.099 412.271 215.199 412.408 215.282 412.523C215.349 412.619 215.381 412.67 215.375 412.674C215.37 412.678 215.327 412.636 215.249 412.548C215.157 412.44 215.047 412.311 214.911 412.151C214.6 411.767 214.175 411.245 213.636 410.58C212.534 409.199 210.94 407.17 208.982 404.57C204.94 399.451 200.147 391.569 194.315 382.531L194.56 382.64C188.44 383.653 181.732 384.764 174.722 385.924C166.973 387.193 159.591 388.402 152.87 389.502C149.512 390.046 146.321 390.564 143.331 391.049C141.842 391.291 140.403 391.524 139.019 391.748C137.697 392.083 136.492 392.713 135.472 393.455C133.416 394.954 132.082 396.927 131.247 398.759C131.01 399.208 130.846 399.67 130.696 400.117C130.552 400.565 130.361 400.981 130.271 401.408C130.091 402.259 129.828 403.018 129.762 403.735C129.663 404.44 129.574 405.07 129.497 405.623C129.465 406.165 129.437 406.63 129.414 407.019C129.389 407.373 129.368 407.656 129.352 407.879C129.339 408.073 129.326 408.172 129.317 408.172Z" fill="#455A64"/>
<path d="M204.899 363.009C204.935 363.007 204.974 363.327 205.013 363.91C205.064 364.492 205.051 365.341 204.96 366.384C204.877 367.429 204.653 368.661 204.291 370C203.904 371.331 203.363 372.764 202.626 374.189C201.873 375.605 201.001 376.865 200.126 377.94C199.23 378.999 198.343 379.884 197.531 380.546C196.726 381.214 196.034 381.706 195.526 381.995C195.024 382.294 194.739 382.444 194.72 382.413C194.667 382.331 195.764 381.652 197.288 380.268C198.055 379.583 198.897 378.689 199.753 377.636C200.589 376.567 201.428 375.329 202.164 373.945C202.883 372.553 203.425 371.16 203.829 369.864C204.208 368.561 204.465 367.361 204.593 366.34C204.866 364.3 204.801 363.012 204.899 363.009Z" fill="#455A64"/>
<path d="M456.905 462.684L326.049 462.606C310.311 462.598 297.558 449.835 297.561 434.097L297.625 106.038C297.628 90.291 310.399 77.53 326.146 77.539L457.003 77.616C472.741 77.626 485.493 90.388 485.49 106.126L485.426 434.186C485.423 449.932 472.652 462.694 456.905 462.684Z" fill="#263238"/>
<path d="M456.864 89.219L431.493 89.204C428.091 89.202 425.331 92.085 425.332 95.641L425.33 100.243C425.33 103.8 422.571 106.682 419.169 106.68L369.716 106.651C366.314 106.649 363.556 103.764 363.557 100.207L363.558 95.605C363.558 92.048 360.8 89.163 357.398 89.161L348.475 89.155L326.269 89.142C315.241 89.136 306.297 98.073 306.295 109.101L306.232 429.31C306.23 440.333 315.161 449.271 326.183 449.278L456.778 449.354C467.805 449.361 476.749 440.424 476.752 429.395L476.815 109.185C476.817 98.164 467.886 89.226 456.864 89.219Z" fill="white"/>
<path d="M476.815 109.186C476.817 98.164 467.886 89.226 456.864 89.219L431.493 89.204C428.091 89.202 425.331 92.085 425.332 95.641L425.33 100.243C425.33 103.8 422.571 106.682 419.169 106.68L369.716 106.651C366.314 106.649 363.556 103.764 363.557 100.207L363.558 95.605C363.558 92.048 360.8 89.163 357.398 89.161L348.475 89.155L326.269 89.142C315.241 89.136 306.297 98.073 306.295 109.101L306.232 139.721H476.812L476.815 109.186Z" fill="#F5F5F5"/>
<path d="M462.936 120.437C462.937 120.532 459.88 120.635 456.11 120.666C452.338 120.697 449.281 120.645 449.28 120.55C449.279 120.454 452.335 120.352 456.107 120.321C459.877 120.29 462.935 120.342 462.936 120.437Z" fill="#263238"/>
<path d="M462.964 123.931C462.965 124.026 459.908 124.129 456.138 124.16C452.366 124.191 449.309 124.139 449.308 124.044C449.307 123.949 452.363 123.846 456.135 123.815C459.906 123.784 462.964 123.836 462.964 123.931Z" fill="#263238"/>
<path d="M462.993 127.425C462.994 127.52 459.937 127.623 456.167 127.654C452.395 127.685 449.338 127.633 449.337 127.537C449.336 127.442 452.392 127.339 456.164 127.308C459.935 127.278 462.993 127.33 462.993 127.425Z" fill="#263238"/>
<path d="M334.143 260.875V267.066H340.334V260.875V254.684H334.143V260.875Z" fill="#263238"/>
<path d="M340.334 223.728H334.143V229.919H340.334V223.728Z" fill="#263238"/>
<path d="M378.592 291.894H372.401V298.085H378.592V291.894Z" fill="#263238"/>
<path d="M340.334 236.11V242.301H334.143V248.493H340.334V254.684H346.525H352.716V260.875H358.908V254.684H365.099V248.493V242.301H358.908V248.493H352.716H346.525V242.301V236.11V229.919H340.334V236.11Z" fill="#263238"/>
<path d="M352.716 223.728H346.525V229.919H352.716H358.908V223.728H352.716Z" fill="#263238"/>
<path d="M380.577 273.499H383.904V267.308H380.577H377.251V273.499H380.577Z" fill="#263238"/>
<path d="M365.099 229.919H358.908V236.11H365.099V229.919Z" fill="#263238"/>
<path d="M408.437 254.684H402.246V260.875H408.437V254.684Z" fill="#263238"/>
<path d="M414.629 186.581H408.438V192.772H414.629V186.581Z" fill="#263238"/>
<path d="M377.481 236.11V229.919H383.673V223.728H377.481V217.537H371.29V223.728H365.099V229.919H371.29V236.11V242.301V248.493V254.684H377.481V248.493V242.301H383.673V236.11H377.481Z" fill="#263238"/>
<path d="M408.438 298.022H414.629V291.831H408.438H402.246V298.022H408.438Z" fill="#263238"/>
<path d="M402.246 186.581H396.055V192.772H402.246V186.581Z" fill="#263238"/>
<path d="M400.698 236.11V229.919H394.507V223.728H388.316V229.919V236.11H382.125V242.301H388.316H394.507V236.11H400.698Z" fill="#263238"/>
<path d="M435.643 223.728H429.452V229.919H435.643V223.728Z" fill="#263238"/>
<path d="M371.468 254.684H365.277V260.875H371.468V254.684Z" fill="#263238"/>
<path d="M396.055 217.537V211.346H402.246V205.154H408.438H414.629V198.963H408.438V192.772H402.246V198.963H396.055V205.154H389.864V211.346H383.673V217.537H389.864H396.055Z" fill="#263238"/>
<path d="M396.055 260.875V254.684H402.246V248.493H396.055H389.864V254.684H383.673V260.875H389.864H396.055Z" fill="#263238"/>
<path d="M414.629 285.637V279.445H408.438H402.246V273.254H396.055V279.445H389.864V285.637H383.673H377.481V291.828H383.673H389.864H396.055V285.637H402.246V291.828H408.438V285.637H414.629Z" fill="#263238"/>
<path d="M389.864 192.772V186.581H383.673H377.481V192.772H371.29V198.963H377.481H383.673V192.772H389.864Z" fill="#263238"/>
<path d="M389.864 198.963H383.673V205.154H389.864V198.963Z" fill="#263238"/>
<path d="M405.342 223.728H399.151V229.919V236.11V242.301H405.342H411.533V236.11H405.342V229.919H411.533V223.728H417.724V217.537H411.533V211.346H405.342V217.537V223.728Z" fill="#263238"/>
<path d="M383.672 205.154H377.481V211.345H383.672V205.154Z" fill="#263238"/>
<path d="M402.246 267.066V273.258H408.438H414.629V267.066H420.82H427.011V260.875H420.82H414.629H408.438V267.066H402.246Z" fill="#263238"/>
<path d="M435.643 242.301H429.452V248.492H435.643V242.301Z" fill="#263238"/>
<path d="M414.629 248.493H408.438V254.684H414.629V248.493Z" fill="#263238"/>
<path d="M430.107 229.919H423.916H417.724V236.11H423.916V242.301H430.107V236.11V229.919Z" fill="#263238"/>
<path d="M427.011 248.493H420.82V254.684H427.011V248.493Z" fill="#263238"/>
<path d="M358.908 285.756H377.489V260.868H352.6V267.066H346.525V273.257H352.6V279.448H346.525V285.639H352.6V285.755H352.716V291.83H346.525V298.021V304.212H352.716V298.021H358.907V291.83L358.908 285.756ZM372.722 265.635V281.113H357.244V265.635H372.722Z" fill="#263238"/>
<path d="M439.394 260.875H445.585V254.684H439.394H433.202H427.011V260.875H433.202H439.394Z" fill="#263238"/>
<path d="M439.394 236.11H445.585V229.919V223.728H439.394V229.919V236.11Z" fill="#263238"/>
<path d="M390.095 267.308H383.904V273.499V279.69H390.095V273.499V267.308Z" fill="#263238"/>
<path d="M451.776 260.875H445.585V267.066H451.776V260.875Z" fill="#263238"/>
<path d="M451.776 248.493V242.301H445.585V248.493V254.684H451.776V248.493Z" fill="#263238"/>
<path d="M340.334 291.831H334.143V298.022V304.214H340.334V298.022V291.831Z" fill="#263238"/>
<path d="M451.776 217.537V186.581H420.82V217.537H451.776ZM425.464 212.893V191.224H447.133V212.893H425.464Z" fill="#263238"/>
<path d="M442.489 195.867H430.107V208.249H442.489V195.867Z" fill="#263238"/>
<path d="M451.776 273.258H420.82V304.214H451.776V273.258ZM425.464 299.57V277.901H447.133V299.57H425.464Z" fill="#263238"/>
<path d="M442.489 282.544H430.107V294.927H442.489V282.544Z" fill="#263238"/>
<path d="M334.065 186.581V217.537H365.021V186.581H334.065ZM360.378 191.224V212.893H338.709V191.224H360.378Z" fill="#263238"/>
<path d="M355.735 195.867H343.352V208.249H355.735V195.867Z" fill="#263238"/>
<path d="M325.236 208.161C325.236 200.832 325.236 193.503 325.236 186.174C325.236 184.124 325.58 182.184 326.979 180.57C328.542 178.767 330.685 178.072 333.004 178.072C336.991 178.072 340.977 178.072 344.963 178.072C348.683 178.072 352.403 178.072 356.122 178.072C357.012 178.072 357.013 176.689 356.122 176.689C348.501 176.689 340.879 176.689 333.258 176.689C331.299 176.689 329.425 176.978 327.746 178.082C325.293 179.694 323.905 182.39 323.853 185.302C323.789 188.919 323.853 192.544 323.853 196.162C323.853 200.161 323.853 204.16 323.853 208.16C323.854 209.051 325.236 209.053 325.236 208.161Z" fill="#FF725E"/>
<path d="M354.098 314.668C346.769 314.668 339.44 314.668 332.111 314.668C330.061 314.668 328.121 314.324 326.508 312.925C324.705 311.362 324.01 309.219 324.01 306.9C324.01 302.914 324.01 298.927 324.01 294.941C324.01 291.221 324.01 287.502 324.01 283.782C324.01 282.892 322.627 282.891 322.627 283.782C322.627 291.403 322.627 299.025 322.627 306.646C322.627 308.605 322.916 310.479 324.02 312.158C325.632 314.611 328.328 316 331.24 316.051C334.858 316.115 338.482 316.051 342.1 316.051C346.099 316.051 350.098 316.051 354.098 316.051C354.988 316.051 354.99 314.668 354.098 314.668Z" fill="#FF725E"/>
<path d="M459.94 283.562C459.94 290.891 459.94 298.22 459.94 305.549C459.94 307.599 459.596 309.539 458.197 311.152C456.634 312.955 454.491 313.65 452.172 313.65C448.186 313.65 444.199 313.65 440.213 313.65C436.493 313.65 432.773 313.65 429.054 313.65C428.164 313.65 428.163 315.033 429.054 315.033C436.675 315.033 444.297 315.033 451.918 315.033C453.877 315.033 455.751 314.744 457.43 313.64C459.883 312.028 461.271 309.332 461.323 306.42C461.387 302.802 461.323 299.178 461.323 295.56C461.323 291.561 461.323 287.562 461.323 283.562C461.322 282.673 459.94 282.671 459.94 283.562Z" fill="#FF725E"/>
<path d="M429.452 178.074C436.781 178.074 444.11 178.074 451.439 178.074C453.489 178.074 455.429 178.418 457.043 179.817C458.846 181.38 459.541 183.523 459.541 185.842C459.541 189.828 459.541 193.815 459.541 197.801C459.541 201.521 459.541 205.241 459.541 208.96C459.541 209.85 460.924 209.851 460.924 208.96C460.924 201.339 460.924 193.717 460.924 186.096C460.924 184.137 460.635 182.263 459.531 180.584C457.919 178.131 455.223 176.743 452.311 176.691C448.693 176.627 445.069 176.691 441.451 176.691C437.452 176.691 433.452 176.691 429.453 176.691C428.563 176.691 428.561 178.074 429.452 178.074Z" fill="#FF725E"/>
<path d="M442.012 417.087H337.716C328.537 417.087 321.096 409.646 321.096 400.467V396.939C321.096 387.76 328.537 380.319 337.716 380.319H442.011C451.19 380.319 458.63 387.76 458.63 396.939V400.467C458.631 409.646 451.19 417.087 442.012 417.087Z" fill="#EBEBEB"/>
<path d="M444.2 405.619C444.2 405.763 420.614 405.879 391.526 405.879C362.428 405.879 338.847 405.763 338.847 405.619C338.847 405.475 362.428 405.359 391.526 405.359C420.614 405.358 444.2 405.475 444.2 405.619Z" fill="#263238"/>
<path d="M371.876 394.976L370.808 397.82H372.968L371.876 394.976ZM372.572 392.84L375.74 400.784L374.18 401L373.448 399.08H370.352L369.632 401H368.072L371.252 392.84H372.572ZM379.98 396.752C379.7 396.624 379.44 396.528 379.2 396.464C378.96 396.392 378.704 396.356 378.432 396.356C378.232 396.356 378.076 396.396 377.964 396.476C377.86 396.548 377.808 396.652 377.808 396.788C377.808 396.884 377.872 396.976 378 397.064C378.136 397.152 378.352 397.248 378.648 397.352C379.136 397.528 379.588 397.776 380.004 398.096C380.42 398.408 380.628 398.816 380.628 399.32C380.628 399.896 380.42 400.344 380.004 400.664C379.596 400.984 378.996 401.144 378.204 401.144C377.956 401.144 377.624 401.096 377.208 401C376.8 400.904 376.46 400.752 376.188 400.544L376.656 399.416C376.936 399.544 377.204 399.644 377.46 399.716C377.724 399.78 377.964 399.812 378.18 399.812C378.468 399.812 378.688 399.772 378.84 399.692C378.992 399.612 379.068 399.508 379.068 399.38C379.068 399.22 378.992 399.076 378.84 398.948C378.688 398.82 378.448 398.704 378.12 398.6C377.656 398.448 377.216 398.232 376.8 397.952C376.392 397.664 376.188 397.28 376.188 396.8C376.188 396.248 376.392 395.816 376.8 395.504C377.208 395.184 377.76 395.024 378.456 395.024C378.704 395.024 379.024 395.076 379.416 395.18C379.808 395.284 380.152 395.436 380.448 395.636L379.98 396.752ZM382.52 392.6C382.768 392.6 382.976 392.684 383.144 392.852C383.32 393.02 383.408 393.228 383.408 393.476C383.408 393.724 383.32 393.932 383.144 394.1C382.976 394.268 382.768 394.352 382.52 394.352C382.28 394.352 382.076 394.268 381.908 394.1C381.74 393.932 381.656 393.724 381.656 393.476C381.656 393.228 381.74 393.02 381.908 392.852C382.076 392.684 382.28 392.6 382.52 392.6ZM383.3 395.18V401H381.74V395.18H383.3ZM386.442 392.528V397.304L388.938 395.012L389.814 396.116L388.182 397.544L390.318 401H388.53L387.066 398.54L386.442 399.092V401H384.894V392.66L386.442 392.528ZM397.106 394.976L396.038 397.82H398.198L397.106 394.976ZM397.802 392.84L400.97 400.784L399.41 401L398.678 399.08H395.582L394.862 401H393.302L396.482 392.84H397.802ZM404.455 399.812C404.991 399.812 405.367 399.62 405.583 399.236C405.799 398.844 405.907 398.448 405.907 398.048C405.907 397.592 405.811 397.184 405.619 396.824C405.427 396.464 405.039 396.284 404.455 396.284C404.287 396.284 404.111 396.316 403.927 396.38C403.751 396.436 403.583 396.516 403.423 396.62V399.476C403.583 399.572 403.751 399.652 403.927 399.716C404.111 399.78 404.287 399.812 404.455 399.812ZM401.875 395.18H402.667L403.003 395.612C403.267 395.412 403.575 395.252 403.927 395.132C404.279 395.012 404.591 394.952 404.863 394.952C405.719 394.952 406.375 395.248 406.831 395.84C407.287 396.432 407.515 397.168 407.515 398.048C407.515 398.928 407.279 399.664 406.807 400.256C406.343 400.848 405.695 401.144 404.863 401.144C404.655 401.144 404.419 401.108 404.155 401.036C403.899 400.964 403.655 400.864 403.423 400.736V403.508L401.875 403.628V395.18ZM411.428 399.812C411.964 399.812 412.34 399.62 412.556 399.236C412.772 398.844 412.88 398.448 412.88 398.048C412.88 397.592 412.784 397.184 412.592 396.824C412.4 396.464 412.012 396.284 411.428 396.284C411.26 396.284 411.084 396.316 410.9 396.38C410.724 396.436 410.556 396.516 410.396 396.62V399.476C410.556 399.572 410.724 399.652 410.9 399.716C411.084 399.78 411.26 399.812 411.428 399.812ZM408.848 395.18H409.64L409.976 395.612C410.24 395.412 410.548 395.252 410.9 395.132C411.252 395.012 411.564 394.952 411.836 394.952C412.692 394.952 413.348 395.248 413.804 395.84C414.26 396.432 414.488 397.168 414.488 398.048C414.488 398.928 414.252 399.664 413.78 400.256C413.316 400.848 412.668 401.144 411.836 401.144C411.628 401.144 411.392 401.108 411.128 401.036C410.872 400.964 410.628 400.864 410.396 400.736V403.508L408.848 403.628V395.18Z" fill="black"/>
<path d="M354.66 338.752C354.38 338.624 354.12 338.528 353.88 338.464C353.64 338.392 353.384 338.356 353.112 338.356C352.912 338.356 352.756 338.396 352.644 338.476C352.54 338.548 352.488 338.652 352.488 338.788C352.488 338.884 352.552 338.976 352.68 339.064C352.816 339.152 353.032 339.248 353.328 339.352C353.816 339.528 354.268 339.776 354.684 340.096C355.1 340.408 355.308 340.816 355.308 341.32C355.308 341.896 355.1 342.344 354.684 342.664C354.276 342.984 353.676 343.144 352.884 343.144C352.636 343.144 352.304 343.096 351.888 343C351.48 342.904 351.14 342.752 350.868 342.544L351.336 341.416C351.616 341.544 351.884 341.644 352.14 341.716C352.404 341.78 352.644 341.812 352.86 341.812C353.148 341.812 353.368 341.772 353.52 341.692C353.672 341.612 353.748 341.508 353.748 341.38C353.748 341.22 353.672 341.076 353.52 340.948C353.368 340.82 353.128 340.704 352.8 340.6C352.336 340.448 351.896 340.232 351.48 339.952C351.072 339.664 350.868 339.28 350.868 338.8C350.868 338.248 351.072 337.816 351.48 337.504C351.888 337.184 352.44 337.024 353.136 337.024C353.384 337.024 353.704 337.076 354.096 337.18C354.488 337.284 354.832 337.436 355.128 337.636L354.66 338.752ZM359.192 338.356C358.752 338.356 358.408 338.524 358.16 338.86C357.912 339.188 357.788 339.6 357.788 340.096C357.788 340.6 357.912 341.012 358.16 341.332C358.408 341.652 358.752 341.812 359.192 341.812C359.464 341.812 359.708 341.78 359.924 341.716C360.148 341.644 360.4 341.544 360.68 341.416L361.124 342.544C360.852 342.752 360.52 342.904 360.128 343C359.744 343.096 359.428 343.144 359.18 343.144C358.236 343.144 357.5 342.868 356.972 342.316C356.444 341.764 356.18 341.024 356.18 340.096C356.18 339.168 356.444 338.424 356.972 337.864C357.5 337.304 358.236 337.024 359.18 337.024C359.428 337.024 359.74 337.076 360.116 337.18C360.5 337.284 360.836 337.436 361.124 337.636L360.68 338.752C360.4 338.624 360.148 338.528 359.924 338.464C359.708 338.392 359.464 338.356 359.192 338.356ZM363.42 341.26C363.42 341.428 363.488 341.58 363.624 341.716C363.76 341.844 363.94 341.908 364.164 341.908C364.38 341.908 364.596 341.86 364.812 341.764C365.036 341.668 365.248 341.524 365.448 341.332V340.444H364.272C364 340.444 363.788 340.528 363.636 340.696C363.492 340.864 363.42 341.052 363.42 341.26ZM364.188 343.144C363.476 343.144 362.948 342.972 362.604 342.628C362.26 342.276 362.088 341.82 362.088 341.26C362.088 340.66 362.292 340.2 362.7 339.88C363.108 339.56 363.64 339.4 364.296 339.4H365.436C365.428 339.104 365.34 338.876 365.172 338.716C365.012 338.548 364.788 338.464 364.5 338.464C364.228 338.464 363.932 338.504 363.612 338.584C363.292 338.656 363.024 338.744 362.808 338.848L362.388 337.552C362.612 337.4 362.952 337.276 363.408 337.18C363.872 337.076 364.228 337.024 364.476 337.024C365.172 337.024 365.768 337.228 366.264 337.636C366.76 338.036 367.008 338.548 367.008 339.172V343H366.204L365.82 342.508C365.604 342.676 365.348 342.824 365.052 342.952C364.764 343.08 364.476 343.144 364.188 343.144ZM369.727 337.804C369.991 337.54 370.319 337.332 370.711 337.18C371.111 337.028 371.467 336.952 371.779 336.952C372.571 336.952 373.131 337.184 373.459 337.648C373.795 338.112 373.963 338.68 373.963 339.352V343H372.403V339.424C372.403 339.056 372.315 338.776 372.139 338.584C371.963 338.384 371.707 338.284 371.371 338.284C371.147 338.284 370.911 338.344 370.663 338.464C370.423 338.576 370.203 338.708 370.003 338.86V343H368.443V337.18H369.259L369.727 337.804ZM383.784 337.18V345.508L382.212 345.628V342.676C381.964 342.82 381.7 342.932 381.42 343.012C381.14 343.1 380.88 343.144 380.64 343.144C379.792 343.144 379.14 342.848 378.684 342.256C378.228 341.664 378 340.928 378 340.048C378 339.168 378.24 338.432 378.72 337.84C379.208 337.248 379.872 336.952 380.712 336.952C381 336.952 381.324 337.016 381.684 337.144C382.044 337.264 382.352 337.436 382.608 337.66L382.968 337.18H383.784ZM381.06 338.284C380.516 338.284 380.136 338.476 379.92 338.86C379.712 339.244 379.608 339.64 379.608 340.048C379.608 340.504 379.704 340.912 379.896 341.272C380.088 341.632 380.476 341.812 381.06 341.812C381.244 341.812 381.436 341.772 381.636 341.692C381.844 341.604 382.036 341.504 382.212 341.392V338.704C382.036 338.584 381.844 338.484 381.636 338.404C381.436 338.324 381.244 338.284 381.06 338.284ZM388.534 337.18L388.846 338.428C388.582 338.428 388.274 338.504 387.922 338.656C387.578 338.808 387.238 339.032 386.902 339.328V343H385.342V337.18H386.158L386.674 338.032C386.914 337.824 387.206 337.632 387.55 337.456C387.894 337.272 388.222 337.18 388.534 337.18ZM395.25 338.356C394.81 338.356 394.466 338.524 394.218 338.86C393.97 339.188 393.846 339.6 393.846 340.096C393.846 340.6 393.97 341.012 394.218 341.332C394.466 341.652 394.81 341.812 395.25 341.812C395.522 341.812 395.766 341.78 395.982 341.716C396.206 341.644 396.458 341.544 396.738 341.416L397.182 342.544C396.91 342.752 396.578 342.904 396.186 343C395.802 343.096 395.486 343.144 395.238 343.144C394.294 343.144 393.558 342.868 393.03 342.316C392.502 341.764 392.238 341.024 392.238 340.096C392.238 339.168 392.502 338.424 393.03 337.864C393.558 337.304 394.294 337.024 395.238 337.024C395.486 337.024 395.798 337.076 396.174 337.18C396.558 337.284 396.894 337.436 397.182 337.636L396.738 338.752C396.458 338.624 396.206 338.528 395.982 338.464C395.766 338.392 395.522 338.356 395.25 338.356ZM401.002 343.144C400.082 343.144 399.362 342.868 398.842 342.316C398.33 341.756 398.074 341.008 398.074 340.072C398.074 339.144 398.342 338.404 398.878 337.852C399.422 337.3 400.162 337.024 401.098 337.024C402.066 337.024 402.814 337.312 403.342 337.888C403.878 338.456 404.146 339.204 404.146 340.132C404.146 341.06 403.858 341.796 403.282 342.34C402.706 342.876 401.946 343.144 401.002 343.144ZM402.538 340.132C402.538 339.58 402.414 339.148 402.166 338.836C401.926 338.516 401.582 338.356 401.134 338.356C400.678 338.356 400.322 338.496 400.066 338.776C399.81 339.056 399.682 339.484 399.682 340.06C399.682 340.636 399.79 341.072 400.006 341.368C400.23 341.664 400.57 341.812 401.026 341.812C401.474 341.812 401.838 341.68 402.118 341.416C402.398 341.144 402.538 340.716 402.538 340.132ZM408.212 338.284C407.668 338.284 407.288 338.476 407.072 338.86C406.864 339.244 406.76 339.64 406.76 340.048C406.76 340.504 406.856 340.912 407.048 341.272C407.24 341.632 407.628 341.812 408.212 341.812C408.396 341.812 408.588 341.772 408.788 341.692C408.996 341.604 409.188 341.504 409.364 341.392V338.704C409.188 338.584 408.996 338.484 408.788 338.404C408.588 338.324 408.396 338.284 408.212 338.284ZM410.936 334.528V343H410.12L409.688 342.436C409.424 342.66 409.112 342.836 408.752 342.964C408.4 343.084 408.08 343.144 407.792 343.144C406.944 343.144 406.292 342.848 405.836 342.256C405.38 341.664 405.152 340.928 405.152 340.048C405.152 339.168 405.392 338.432 405.872 337.84C406.36 337.248 407.024 336.952 407.864 336.952C408.08 336.952 408.324 336.992 408.596 337.072C408.868 337.144 409.124 337.248 409.364 337.384V334.66L410.936 334.528ZM415.506 343.144C414.498 343.144 413.702 342.868 413.118 342.316C412.542 341.764 412.254 341.024 412.254 340.096C412.254 339.168 412.514 338.424 413.034 337.864C413.562 337.304 414.278 337.024 415.182 337.024C416.094 337.024 416.762 337.328 417.186 337.936C417.618 338.536 417.834 339.248 417.834 340.072V340.552H413.91C413.982 340.936 414.158 341.244 414.438 341.476C414.718 341.7 415.086 341.812 415.542 341.812C415.806 341.812 416.042 341.78 416.25 341.716C416.466 341.644 416.714 341.544 416.994 341.416L417.45 342.544C417.178 342.752 416.846 342.904 416.454 343C416.07 343.096 415.754 343.144 415.506 343.144ZM416.358 339.508C416.278 339.116 416.134 338.828 415.926 338.644C415.718 338.452 415.458 338.356 415.146 338.356C414.826 338.356 414.558 338.456 414.342 338.656C414.126 338.848 413.986 339.132 413.922 339.508H416.358ZM425.469 342.88C425.341 342.984 425.157 343.068 424.917 343.132C424.685 343.204 424.477 343.24 424.293 343.24C423.573 343.24 423.005 343.06 422.589 342.7C422.181 342.332 421.977 341.812 421.977 341.14V338.392H421.197V337.192H421.977V335.812L423.525 335.536V337.192H424.581L425.061 338.392H423.525V340.864C423.525 341.168 423.597 341.42 423.741 341.62C423.885 341.812 424.097 341.908 424.377 341.908C424.481 341.908 424.585 341.896 424.689 341.872C424.793 341.848 424.901 341.808 425.013 341.752L425.469 342.88ZM429.022 343.144C428.102 343.144 427.382 342.868 426.862 342.316C426.35 341.756 426.094 341.008 426.094 340.072C426.094 339.144 426.362 338.404 426.898 337.852C427.442 337.3 428.182 337.024 429.118 337.024C430.086 337.024 430.834 337.312 431.362 337.888C431.898 338.456 432.166 339.204 432.166 340.132C432.166 341.06 431.878 341.796 431.302 342.34C430.726 342.876 429.966 343.144 429.022 343.144ZM430.558 340.132C430.558 339.58 430.434 339.148 430.186 338.836C429.946 338.516 429.602 338.356 429.154 338.356C428.698 338.356 428.342 338.496 428.086 338.776C427.83 339.056 427.702 339.484 427.702 340.06C427.702 340.636 427.81 341.072 428.026 341.368C428.25 341.664 428.59 341.812 429.046 341.812C429.494 341.812 429.858 341.68 430.138 341.416C430.418 341.144 430.558 340.716 430.558 340.132ZM369.687 360.284C369.143 360.284 368.763 360.476 368.547 360.86C368.339 361.244 368.235 361.64 368.235 362.048C368.235 362.504 368.331 362.912 368.523 363.272C368.715 363.632 369.103 363.812 369.687 363.812C369.871 363.812 370.063 363.772 370.263 363.692C370.471 363.604 370.663 363.504 370.839 363.392V360.704C370.663 360.584 370.471 360.484 370.263 360.404C370.063 360.324 369.871 360.284 369.687 360.284ZM372.411 356.528V365H371.595L371.163 364.436C370.899 364.66 370.587 364.836 370.227 364.964C369.875 365.084 369.555 365.144 369.267 365.144C368.419 365.144 367.767 364.848 367.311 364.256C366.855 363.664 366.627 362.928 366.627 362.048C366.627 361.168 366.867 360.432 367.347 359.84C367.835 359.248 368.499 358.952 369.339 358.952C369.555 358.952 369.799 358.992 370.071 359.072C370.343 359.144 370.599 359.248 370.839 359.384V356.66L372.411 356.528ZM376.657 365.144C375.737 365.144 375.017 364.868 374.497 364.316C373.985 363.756 373.729 363.008 373.729 362.072C373.729 361.144 373.997 360.404 374.533 359.852C375.077 359.3 375.817 359.024 376.753 359.024C377.721 359.024 378.469 359.312 378.997 359.888C379.533 360.456 379.801 361.204 379.801 362.132C379.801 363.06 379.513 363.796 378.937 364.34C378.361 364.876 377.601 365.144 376.657 365.144ZM378.193 362.132C378.193 361.58 378.069 361.148 377.821 360.836C377.581 360.516 377.237 360.356 376.789 360.356C376.333 360.356 375.977 360.496 375.721 360.776C375.465 361.056 375.337 361.484 375.337 362.06C375.337 362.636 375.445 363.072 375.661 363.368C375.885 363.664 376.225 363.812 376.681 363.812C377.129 363.812 377.493 363.68 377.773 363.416C378.053 363.144 378.193 362.716 378.193 362.132ZM386.003 365L384.791 361.436L383.627 365H382.307L380.375 359.396L381.983 359.18L383.003 362.564L383.963 359.18H385.679L386.699 362.564L387.647 359.18H389.291L387.311 365H386.003ZM391.389 359.804C391.653 359.54 391.981 359.332 392.373 359.18C392.773 359.028 393.129 358.952 393.441 358.952C394.233 358.952 394.793 359.184 395.121 359.648C395.457 360.112 395.625 360.68 395.625 361.352V365H394.065V361.424C394.065 361.056 393.977 360.776 393.801 360.584C393.625 360.384 393.369 360.284 393.033 360.284C392.809 360.284 392.573 360.344 392.325 360.464C392.085 360.576 391.865 360.708 391.665 360.86V365H390.105V359.18H390.921L391.389 359.804ZM398.698 356.528V365H397.15V356.66L398.698 356.528ZM402.942 365.144C402.022 365.144 401.302 364.868 400.782 364.316C400.27 363.756 400.014 363.008 400.014 362.072C400.014 361.144 400.282 360.404 400.818 359.852C401.362 359.3 402.102 359.024 403.038 359.024C404.006 359.024 404.754 359.312 405.282 359.888C405.818 360.456 406.086 361.204 406.086 362.132C406.086 363.06 405.798 363.796 405.222 364.34C404.646 364.876 403.886 365.144 402.942 365.144ZM404.478 362.132C404.478 361.58 404.354 361.148 404.106 360.836C403.866 360.516 403.522 360.356 403.074 360.356C402.618 360.356 402.262 360.496 402.006 360.776C401.75 361.056 401.622 361.484 401.622 362.06C401.622 362.636 401.73 363.072 401.946 363.368C402.17 363.664 402.51 363.812 402.966 363.812C403.414 363.812 403.778 363.68 404.058 363.416C404.338 363.144 404.478 362.716 404.478 362.132ZM408.496 363.26C408.496 363.428 408.564 363.58 408.7 363.716C408.836 363.844 409.016 363.908 409.24 363.908C409.456 363.908 409.672 363.86 409.888 363.764C410.112 363.668 410.324 363.524 410.524 363.332V362.444H409.348C409.076 362.444 408.864 362.528 408.712 362.696C408.568 362.864 408.496 363.052 408.496 363.26ZM409.264 365.144C408.552 365.144 408.024 364.972 407.68 364.628C407.336 364.276 407.164 363.82 407.164 363.26C407.164 362.66 407.368 362.2 407.776 361.88C408.184 361.56 408.716 361.4 409.372 361.4H410.512C410.504 361.104 410.416 360.876 410.248 360.716C410.088 360.548 409.864 360.464 409.576 360.464C409.304 360.464 409.008 360.504 408.688 360.584C408.368 360.656 408.1 360.744 407.884 360.848L407.464 359.552C407.688 359.4 408.028 359.276 408.484 359.18C408.948 359.076 409.304 359.024 409.552 359.024C410.248 359.024 410.844 359.228 411.34 359.636C411.836 360.036 412.084 360.548 412.084 361.172V365H411.28L410.896 364.508C410.68 364.676 410.424 364.824 410.128 364.952C409.84 365.08 409.552 365.144 409.264 365.144ZM416.339 360.284C415.795 360.284 415.415 360.476 415.199 360.86C414.991 361.244 414.887 361.64 414.887 362.048C414.887 362.504 414.983 362.912 415.175 363.272C415.367 363.632 415.755 363.812 416.339 363.812C416.523 363.812 416.715 363.772 416.915 363.692C417.123 363.604 417.315 363.504 417.491 363.392V360.704C417.315 360.584 417.123 360.484 416.915 360.404C416.715 360.324 416.523 360.284 416.339 360.284ZM419.063 356.528V365H418.247L417.815 364.436C417.551 364.66 417.239 364.836 416.879 364.964C416.527 365.084 416.207 365.144 415.919 365.144C415.071 365.144 414.419 364.848 413.963 364.256C413.507 363.664 413.279 362.928 413.279 362.048C413.279 361.168 413.519 360.432 413.999 359.84C414.487 359.248 415.151 358.952 415.991 358.952C416.207 358.952 416.451 358.992 416.723 359.072C416.995 359.144 417.251 359.248 417.491 359.384V356.66L419.063 356.528Z" fill="black"/>
</svg>
